  0
SECTION
  2
HEADER
  9
$ACADVER
  1
AC1018
  9
$ACADMAINTVER
 70
     0
  9
$DWGCODEPAGE
  3
ANSI_1252
  9
$INSBASE
 10
0.0
 20
0.0
 30
0.0
  9
$EXTMIN
 10
1.000000000000000E+20
 20
1.000000000000000E+20
 30
1.000000000000000E+20
  9
$EXTMAX
 10
-1.000000000000000E+20
 20
-1.000000000000000E+20
 30
-1.000000000000000E+20
  9
$LIMMIN
 10
0.0
 20
0.0
  9
$LIMMAX
 10
12.0
 20
9.0
  9
$ORTHOMODE
 70
     0
  9
$REGENMODE
 70
     1
  9
$FILLMODE
 70
     1
  9
$QTEXTMODE
 70
     0
  9
$MIRRTEXT
 70
     1
  9
$LTSCALE
 40
1.0
  9
$ATTMODE
 70
     1
  9
$TEXTSIZE
 40
0.2
  9
$TRACEWID
 40
0.05
  9
$TEXTSTYLE
  7
Standard
  9
$CLAYER
  8
0
  9
$CELTYPE
  6
ByLayer
  9
$CECOLOR
 62
   256
  9
$CELTSCALE
 40
1.0
  9
$DISPSILH
 70
     0
  9
$DIMSCALE
 40
1.0
  9
$DIMASZ
 40
0.18
  9
$DIMEXO
 40
0.0625
  9
$DIMDLI
 40
0.38
  9
$DIMRND
 40
0.0
  9
$DIMDLE
 40
0.0
  9
$DIMEXE
 40
0.18
  9
$DIMTP
 40
0.0
  9
$DIMTM
 40
0.0
  9
$DIMTXT
 40
0.18
  9
$DIMCEN
 40
0.09
  9
$DIMTSZ
 40
0.0
  9
$DIMTOL
 70
     0
  9
$DIMLIM
 70
     0
  9
$DIMTIH
 70
     1
  9
$DIMTOH
 70
     1
  9
$DIMSE1
 70
     0
  9
$DIMSE2
 70
     0
  9
$DIMTAD
 70
     0
  9
$DIMZIN
 70
     0
  9
$DIMBLK
  1

  9
$DIMASO
 70
     1
  9
$DIMSHO
 70
     1
  9
$DIMPOST
  1

  9
$DIMAPOST
  1

  9
$DIMALT
 70
     0
  9
$DIMALTD
 70
     2
  9
$DIMALTF
 40
25.4
  9
$DIMLFAC
 40
1.0
  9
$DIMTOFL
 70
     0
  9
$DIMTVP
 40
0.0
  9
$DIMTIX
 70
     0
  9
$DIMSOXD
 70
     0
  9
$DIMSAH
 70
     0
  9
$DIMBLK1
  1

  9
$DIMBLK2
  1

  9
$DIMSTYLE
  2
Standard
  9
$DIMCLRD
 70
     0
  9
$DIMCLRE
 70
     0
  9
$DIMCLRT
 70
     0
  9
$DIMTFAC
 40
1.0
  9
$DIMGAP
 40
0.09
  9
$DIMJUST
 70
     0
  9
$DIMSD1
 70
     0
  9
$DIMSD2
 70
     0
  9
$DIMTOLJ
 70
     1
  9
$DIMTZIN
 70
     0
  9
$DIMALTZ
 70
     0
  9
$DIMALTTZ
 70
     0
  9
$DIMUPT
 70
     0
  9
$DIMDEC
 70
     4
  9
$DIMTDEC
 70
     4
  9
$DIMALTU
 70
     2
  9
$DIMALTTD
 70
     2
  9
$DIMTXSTY
  7
Standard
  9
$DIMAUNIT
 70
     0
  9
$DIMADEC
 70
     0
  9
$DIMALTRND
 40
0.0
  9
$DIMAZIN
 70
     0
  9
$DIMDSEP
 70
    46
  9
$DIMATFIT
 70
     3
  9
$DIMFRAC
 70
     0
  9
$DIMLDRBLK
  1

  9
$DIMLUNIT
 70
     2
  9
$DIMLWD
 70
    -2
  9
$DIMLWE
 70
    -2
  9
$DIMTMOVE
 70
     0
  9
$LUNITS
 70
     2
  9
$LUPREC
 70
     4
  9
$SKETCHINC
 40
0.1
  9
$FILLETRAD
 40
0.5
  9
$AUNITS
 70
     0
  9
$AUPREC
 70
     0
  9
$MENU
  1
.
  9
$ELEVATION
 40
0.0
  9
$PELEVATION
 40
0.0
  9
$THICKNESS
 40
0.0
  9
$LIMCHECK
 70
     0
  9
$CHAMFERA
 40
0.5
  9
$CHAMFERB
 40
0.5
  9
$CHAMFERC
 40
1.0
  9
$CHAMFERD
 40
0.0
  9
$SKPOLY
 70
     0
  9
$TDCREATE
 40
2457884.96574338
  9
$TDUCREATE
 40
2457885.132410046
  9
$TDUPDATE
 40
2457884.965743391
  9
$TDUUPDATE
 40
2457885.132410058
  9
$TDINDWG
 40
0.0000000116
  9
$TDUSRTIMER
 40
0.0000000116
  9
$USRTIMER
 70
     1
  9
$ANGBASE
 50
0.0
  9
$ANGDIR
 70
     0
  9
$PDMODE
 70
     0
  9
$PDSIZE
 40
0.0
  9
$PLINEWID
 40
0.0
  9
$SPLFRAME
 70
     0
  9
$SPLINETYPE
 70
     6
  9
$SPLINESEGS
 70
     8
  9
$HANDSEED
  5
23B
  9
$SURFTAB1
 70
     6
  9
$SURFTAB2
 70
     6
  9
$SURFTYPE
 70
     6
  9
$SURFU
 70
     6
  9
$SURFV
 70
     6
  9
$UCSBASE
  2

  9
$UCSNAME
  2

  9
$UCSORG
 10
0.0
 20
0.0
 30
0.0
  9
$UCSXDIR
 10
1.0
 20
0.0
 30
0.0
  9
$UCSYDIR
 10
0.0
 20
1.0
 30
0.0
  9
$UCSORTHOREF
  2

  9
$UCSORTHOVIEW
 70
     0
  9
$UCSORGTOP
 10
0.0
 20
0.0
 30
0.0
  9
$UCSORGBOTTOM
 10
0.0
 20
0.0
 30
0.0
  9
$UCSORGLEFT
 10
0.0
 20
0.0
 30
0.0
  9
$UCSORGRIGHT
 10
0.0
 20
0.0
 30
0.0
  9
$UCSORGFRONT
 10
0.0
 20
0.0
 30
0.0
  9
$UCSORGBACK
 10
0.0
 20
0.0
 30
0.0
  9
$PUCSBASE
  2

  9
$PUCSNAME
  2

  9
$PUCSORG
 10
0.0
 20
0.0
 30
0.0
  9
$PUCSXDIR
 10
1.0
 20
0.0
 30
0.0
  9
$PUCSYDIR
 10
0.0
 20
1.0
 30
0.0
  9
$PUCSORTHOREF
  2

  9
$PUCSORTHOVIEW
 70
     0
  9
$PUCSORGTOP
 10
0.0
 20
0.0
 30
0.0
  9
$PUCSORGBOTTOM
 10
0.0
 20
0.0
 30
0.0
  9
$PUCSORGLEFT
 10
0.0
 20
0.0
 30
0.0
  9
$PUCSORGRIGHT
 10
0.0
 20
0.0
 30
0.0
  9
$PUCSORGFRONT
 10
0.0
 20
0.0
 30
0.0
  9
$PUCSORGBACK
 10
0.0
 20
0.0
 30
0.0
  9
$USERI1
 70
     0
  9
$USERI2
 70
     0
  9
$USERI3
 70
     0
  9
$USERI4
 70
     0
  9
$USERI5
 70
     0
  9
$USERR1
 40
0.0
  9
$USERR2
 40
0.0
  9
$USERR3
 40
0.0
  9
$USERR4
 40
0.0
  9
$USERR5
 40
0.0
  9
$WORLDVIEW
 70
     1
  9
$SHADEDGE
 70
     3
  9
$SHADEDIF
 70
    70
  9
$TILEMODE
 70
     1
  9
$MAXACTVP
 70
    64
  9
$PINSBASE
 10
0.0
 20
0.0
 30
0.0
  9
$PLIMCHECK
 70
     0
  9
$PEXTMIN
 10
1.000000000000000E+20
 20
1.000000000000000E+20
 30
1.000000000000000E+20
  9
$PEXTMAX
 10
-1.000000000000000E+20
 20
-1.000000000000000E+20
 30
-1.000000000000000E+20
  9
$PLIMMIN
 10
0.0
 20
0.0
  9
$PLIMMAX
 10
12.0
 20
9.0
  9
$UNITMODE
 70
     0
  9
$VISRETAIN
 70
     1
  9
$PLINEGEN
 70
     0
  9
$PSLTSCALE
 70
     1
  9
$TREEDEPTH
 70
  3020
  9
$CMLSTYLE
  2
Standard
  9
$CMLJUST
 70
     0
  9
$CMLSCALE
 40
1.0
  9
$PROXYGRAPHICS
 70
     1
  9
$MEASUREMENT
 70
     0
  9
$CELWEIGHT
370
    -1
  9
$ENDCAPS
280
     0
  9
$JOINSTYLE
280
     0
  9
$LWDISPLAY
290
     1
  9
$INSUNITS
 70
     1
  9
$HYPERLINKBASE
  1

  9
$STYLESHEET
  1

  9
$XEDIT
290
     1
  9
$CEPSNTYPE
380
     0
  9
$PSTYLEMODE
290
     1
  9
$FINGERPRINTGUID
  2
{C60A52DB-751A-460C-9B38-71AA995CA97C}
  9
$VERSIONGUID
  2
{FAEB1C32-E019-11D5-929B-00C0DF256EC4}
  9
$EXTNAMES
290
     1
  9
$PSVPSCALE
 40
0.0
  9
$OLESTARTUP
290
     0
  9
$SORTENTS
280
   127
  9
$INDEXCTL
280
     0
  9
$HIDETEXT
280
     1
  9
$XCLIPFRAME
290
     0
  9
$HALOGAP
280
     0
  9
$OBSCOLOR
 70
   257
  9
$OBSLTYPE
280
     0
  9
$INTERSECTIONDISPLAY
280
     0
  9
$INTERSECTIONCOLOR
 70
   257
  9
$DIMASSOC
280
     2
  9
$PROJECTNAME
  1

  0
ENDSEC
  0
SECTION
  2
CLASSES
  0
CLASS
  1
ACDBDICTIONARYWDFLT
  2
AcDbDictionaryWithDefault
  3
ObjectDBX Classes
 90
        0
 91
        3
280
     0
281
     0
  0
CLASS
  1
VISUALSTYLE
  2
AcDbVisualStyle
  3
ObjectDBX Classes
 90
     4095
 91
        3
280
     0
281
     0
  0
ENDSEC
  0
SECTION
  2
TABLES
  0
TABLE
  2
VPORT
  5
8
330
0
100
AcDbSymbolTable
 70
     1
  0
VPORT
  5
29
330
8
100
AcDbSymbolTableRecord
100
AcDbViewportTableRecord
  2
*Active
 70
     0
 10
0.0
 20
0.0
 11
1.0
 21
1.0
 12
0.0
 22
0.0
 13
0.0
 23
0.0
 14
0.5
 24
0.5
 15
0.5
 25
0.5
 16
0.0
 26
0.0
 36
1.0
 17
11.54973008897569
 27
17.04401991102431
 37
0.0
 40
13.28335232204861
 41
1.736887032791991
 42
50.0
 43
0.0
 44
0.0
 50
0.0
 51
0.0
 71
     0
 72
   100
 73
     1
 74
     3
 75
     0
 76
     0
 77
     0
 78
     0
281
     0
 65
     1
110
0.0
120
0.0
130
0.0
111
1.0
121
0.0
131
0.0
112
0.0
122
1.0
132
0.0
 79
     0
146
0.0
  0
ENDTAB
  0
TABLE
  2
LTYPE
  5
5
330
0
100
AcDbSymbolTable
 70
     1
  0
LTYPE
  5
14
330
5
100
AcDbSymbolTableRecord
100
AcDbLinetypeTableRecord
  2
ByBlock
 70
     0
  3

 72
    65
 73
     0
 40
0.0
  0
LTYPE
  5
15
330
5
100
AcDbSymbolTableRecord
100
AcDbLinetypeTableRecord
  2
ByLayer
 70
     0
  3

 72
    65
 73
     0
 40
0.0
  0
LTYPE
  5
16
330
5
100
AcDbSymbolTableRecord
100
AcDbLinetypeTableRecord
  2
Continuous
 70
     0
  3
Solid line
 72
    65
 73
     0
 40
0.0
  0
ENDTAB
  0
TABLE
  2
LAYER
  5
2
330
0
100
AcDbSymbolTable
 70
     2
  0
LAYER
  5
10
330
2
100
AcDbSymbolTableRecord
100
AcDbLayerTableRecord
  2
0
 70
     0
 62
     7
  6
Continuous
370
    -3
390
F
  0
LAYER
  5
3B
330
2
100
AcDbSymbolTableRecord
100
AcDbLayerTableRecord
  2
Layer 1
 70
     0
 62
     7
  6
Continuous
370
    -3
390
F
  0
ENDTAB
  0
TABLE
  2
STYLE
  5
3
330
0
100
AcDbSymbolTable
 70
     1
  0
STYLE
  5
11
330
3
100
AcDbSymbolTableRecord
100
AcDbTextStyleTableRecord
  2
Standard
 70
     0
 40
0.0
 41
1.0
 50
0.0
 71
     0
 42
0.2
  3
txt
  4

  0
ENDTAB
  0
TABLE
  2
VIEW
  5
6
330
0
100
AcDbSymbolTable
 70
     0
  0
ENDTAB
  0
TABLE
  2
UCS
  5
7
330
0
100
AcDbSymbolTable
 70
     0
  0
ENDTAB
  0
TABLE
  2
APPID
  5
9
330
0
100
AcDbSymbolTable
 70
     1
  0
APPID
  5
12
330
9
100
AcDbSymbolTableRecord
100
AcDbRegAppTableRecord
  2
ACAD
 70
     0
  0
ENDTAB
  0
TABLE
  2
DIMSTYLE
  5
A
330
0
100
AcDbSymbolTable
 70
     1
100
AcDbDimStyleTable
  0
DIMSTYLE
105
27
330
A
100
AcDbSymbolTableRecord
100
AcDbDimStyleTableRecord
  2
Standard
 70
     0
340
11
  0
ENDTAB
  0
TABLE
  2
BLOCK_RECORD
  5
1
330
0
100
AcDbSymbolTable
 70
     8
  0
BLOCK_RECORD
  5
1F
330
1
100
AcDbSymbolTableRecord
100
AcDbBlockTableRecord
  2
*Model_Space
340
22
  0
BLOCK_RECORD
  5
1B
330
1
100
AcDbSymbolTableRecord
100
AcDbBlockTableRecord
  2
*Paper_Space
340
1E
  0
BLOCK_RECORD
  5
23
330
1
100
AcDbSymbolTableRecord
100
AcDbBlockTableRecord
  2
*Paper_Space0
340
26
  0
BLOCK_RECORD
  5
3C
330
1
100
AcDbSymbolTableRecord
100
AcDbBlockTableRecord
  2
block 2
340
0
102
{BLKREFS
331
3D
102
}
  0
BLOCK_RECORD
  5
96
330
1
100
AcDbSymbolTableRecord
100
AcDbBlockTableRecord
  2
block 3
340
0
102
{BLKREFS
331
97
102
}
  0
BLOCK_RECORD
  5
F0
330
1
100
AcDbSymbolTableRecord
100
AcDbBlockTableRecord
  2
block 4
340
0
102
{BLKREFS
331
F1
102
}
  0
BLOCK_RECORD
  5
14A
330
1
100
AcDbSymbolTableRecord
100
AcDbBlockTableRecord
  2
block 5
340
0
102
{BLKREFS
331
14B
102
}
  0
BLOCK_RECORD
  5
1A4
330
1
100
AcDbSymbolTableRecord
100
AcDbBlockTableRecord
  2
block 6
340
0
102
{BLKREFS
331
1A5
102
}
  0
BLOCK_RECORD
  5
1B3
330
1
100
AcDbSymbolTableRecord
100
AcDbBlockTableRecord
  2
block 7
340
0
102
{BLKREFS
331
1B4
102
}
  0
BLOCK_RECORD
  5
1FA
330
1
100
AcDbSymbolTableRecord
100
AcDbBlockTableRecord
  2
block 8
340
0
102
{BLKREFS
331
1FB
102
}
  0
ENDTAB
  0
ENDSEC
  0
SECTION
  2
BLOCKS
  0
BLOCK
  5
20
330
1F
100
AcDbEntity
  8
0
100
AcDbBlockBegin
  2
*Model_Space
 70
     0
 71
     0
 10
0.0
 20
0.0
 30
0.0
  3
*Model_Space
  1

  0
ENDBLK
  5
21
330
1F
100
AcDbEntity
  8
0
100
AcDbBlockEnd
  0
BLOCK
  5
1C
330
1B
100
AcDbEntity
 67
     1
  8
0
100
AcDbBlockBegin
  2
*Paper_Space
 70
     0
 71
     0
 10
0.0
 20
0.0
 30
0.0
  3
*Paper_Space
  1

  0
ENDBLK
  5
1D
330
1B
100
AcDbEntity
 67
     1
  8
0
100
AcDbBlockEnd
  0
BLOCK
  5
24
330
23
100
AcDbEntity
  8
0
100
AcDbBlockBegin
  2
*Paper_Space0
 70
     0
 71
     0
 10
0.0
 20
0.0
 30
0.0
  3
*Paper_Space0
  1

  0
ENDBLK
  5
25
330
23
100
AcDbEntity
  8
0
100
AcDbBlockEnd
  0
BLOCK
  5
3E
330
3C
100
AcDbEntity
  8
0
100
AcDbBlockBegin
  2
block 2
 70
     0
 71
     0
 10
0.0
 20
0.0
 30
0.0
  3
block 2
  1

  0
POLYLINE
  5
40
330
3C
100
AcDbEntity
  8
Layer 1
370
     0
100
AcDb2dPolyline
 66
     1
 10
0.0
 20
0.0
 30
0.0
  0
VERTEX
  5
41
330
40
100
AcDbEntity
  8
Layer 1
370
     0
100
AcDbVertex
100
AcDb2dVertex
 10
0.1838107638888889
 20
23.45402018229166
 30
0.0
  0
VERTEX
  5
42
330
40
100
AcDbEntity
  8
Layer 1
370
     0
100
AcDbVertex
100
AcDb2dVertex
 10
0.1838107638888889
 20
21.44769287109375
 30
0.0
  0
VERTEX
  5
43
330
40
100
AcDbEntity
  8
Layer 1
370
     0
100
AcDbVertex
100
AcDb2dVertex
 10
2.189988878038194
 20
21.44769287109375
 30
0.0
  0
VERTEX
  5
44
330
40
100
AcDbEntity
  8
Layer 1
370
     0
100
AcDbVertex
100
AcDb2dVertex
 10
2.190056694878472
 20
23.45402018229166
 30
0.0
  0
VERTEX
  5
45
330
40
100
AcDbEntity
  8
Layer 1
370
     0
100
AcDbVertex
100
AcDb2dVertex
 10
0.1838107638888889
 20
23.45402018229166
 30
0.0
  0
SEQEND
  5
46
330
40
100
AcDbEntity
  8
Layer 1
370
     0
  0
POLYLINE
  5
47
330
3C
100
AcDbEntity
  8
Layer 1
370
     0
100
AcDb2dPolyline
 66
     1
 10
0.0
 20
0.0
 30
0.0
  0
VERTEX
  5
48
330
47
100
AcDbEntity
  8
Layer 1
370
     0
100
AcDbVertex
100
AcDb2dVertex
 10
2.190056694878472
 20
21.44769287109375
 30
0.0
  0
VERTEX
  5
49
330
47
100
AcDbEntity
  8
Layer 1
370
     0
100
AcDbVertex
100
AcDb2dVertex
 10
4.196234809027778
 20
21.44769287109375
 30
0.0
  0
VERTEX
  5
4A
330
47
100
AcDbEntity
  8
Layer 1
370
     0
100
AcDbVertex
100
AcDb2dVertex
 10
4.196316189236111
 20
23.45402018229166
 30
0.0
  0
VERTEX
  5
4B
330
47
100
AcDbEntity
  8
Layer 1
370
     0
100
AcDbVertex
100
AcDb2dVertex
 10
2.190056694878472
 20
23.45402018229166
 30
0.0
  0
SEQEND
  5
4C
330
47
100
AcDbEntity
  8
Layer 1
370
     0
  0
POLYLINE
  5
4D
330
3C
100
AcDbEntity
  8
Layer 1
370
     0
100
AcDb2dPolyline
 66
     1
 10
0.0
 20
0.0
 30
0.0
  0
VERTEX
  5
4E
330
4D
100
AcDbEntity
  8
Layer 1
370
     0
100
AcDbVertex
100
AcDb2dVertex
 10
4.204664442274305
 20
21.44769287109375
 30
0.0
  0
VERTEX
  5
4F
330
4D
100
AcDbEntity
  8
Layer 1
370
     0
100
AcDbVertex
100
AcDb2dVertex
 10
6.210842556423611
 20
21.44769287109375
 30
0.0
  0
VERTEX
  5
50
330
4D
100
AcDbEntity
  8
Layer 1
370
     0
100
AcDbVertex
100
AcDb2dVertex
 10
6.210917154947916
 20
23.45402018229166
 30
0.0
  0
VERTEX
  5
51
330
4D
100
AcDbEntity
  8
Layer 1
370
     0
100
AcDbVertex
100
AcDb2dVertex
 10
4.204664442274305
 20
23.45402018229166
 30
0.0
  0
SEQEND
  5
52
330
4D
100
AcDbEntity
  8
Layer 1
370
     0
  0
POLYLINE
  5
53
330
3C
100
AcDbEntity
  8
Layer 1
370
     0
100
AcDb2dPolyline
 66
     1
 10
0.0
 20
0.0
 30
0.0
  0
VERTEX
  5
54
330
53
100
AcDbEntity
  8
Layer 1
370
     0
100
AcDbVertex
100
AcDb2dVertex
 10
6.202555338541666
 20
21.44769287109375
 30
0.0
  0
VERTEX
  5
55
330
53
100
AcDbEntity
  8
Layer 1
370
     0
100
AcDbVertex
100
AcDb2dVertex
 10
8.208733452690971
 20
21.44769287109375
 30
0.0
  0
VERTEX
  5
56
330
53
100
AcDbEntity
  8
Layer 1
370
     0
100
AcDbVertex
100
AcDb2dVertex
 10
8.208821614583332
 20
23.45402018229166
 30
0.0
  0
VERTEX
  5
57
330
53
100
AcDbEntity
  8
Layer 1
370
     0
100
AcDbVertex
100
AcDb2dVertex
 10
6.202555338541666
 20
23.45402018229166
 30
0.0
  0
SEQEND
  5
58
330
53
100
AcDbEntity
  8
Layer 1
370
     0
  0
POLYLINE
  5
59
330
3C
100
AcDbEntity
  8
Layer 1
370
     0
100
AcDb2dPolyline
 66
     1
 10
0.0
 20
0.0
 30
0.0
  0
VERTEX
  5
5A
330
59
100
AcDbEntity
  8
Layer 1
370
     0
100
AcDbVertex
100
AcDb2dVertex
 10
8.208821614583332
 20
21.44769287109375
 30
0.0
  0
VERTEX
  5
5B
330
59
100
AcDbEntity
  8
Layer 1
370
     0
100
AcDbVertex
100
AcDb2dVertex
 10
10.21499294704861
 20
21.44769287109375
 30
0.0
  0
VERTEX
  5
5C
330
59
100
AcDbEntity
  8
Layer 1
370
     0
100
AcDbVertex
100
AcDb2dVertex
 10
10.21506076388889
 20
23.45402018229166
 30
0.0
  0
VERTEX
  5
5D
330
59
100
AcDbEntity
  8
Layer 1
370
     0
100
AcDbVertex
100
AcDb2dVertex
 10
8.208821614583332
 20
23.45402018229166
 30
0.0
  0
SEQEND
  5
5E
330
59
100
AcDbEntity
  8
Layer 1
370
     0
  0
POLYLINE
  5
5F
330
3C
100
AcDbEntity
  8
Layer 1
370
     0
100
AcDb2dPolyline
 66
     1
 10
0.0
 20
0.0
 30
0.0
  0
VERTEX
  5
60
330
5F
100
AcDbEntity
  8
Layer 1
370
     0
100
AcDbVertex
100
AcDb2dVertex
 10
10.21506076388889
 20
21.44769287109375
 30
0.0
  0
VERTEX
  5
61
330
5F
100
AcDbEntity
  8
Layer 1
370
     0
100
AcDbVertex
100
AcDb2dVertex
 10
12.22123209635417
 20
21.44769287109375
 30
0.0
  0
VERTEX
  5
62
330
5F
100
AcDbEntity
  8
Layer 1
370
     0
100
AcDbVertex
100
AcDb2dVertex
 10
12.2213134765625
 20
23.45402018229166
 30
0.0
  0
VERTEX
  5
63
330
5F
100
AcDbEntity
  8
Layer 1
370
     0
100
AcDbVertex
100
AcDb2dVertex
 10
10.21506076388889
 20
23.45402018229166
 30
0.0
  0
SEQEND
  5
64
330
5F
100
AcDbEntity
  8
Layer 1
370
     0
  0
POLYLINE
  5
65
330
3C
100
AcDbEntity
  8
Layer 1
370
     0
100
AcDb2dPolyline
 66
     1
 10
0.0
 20
0.0
 30
0.0
  0
VERTEX
  5
66
330
65
100
AcDbEntity
  8
Layer 1
370
     0
100
AcDbVertex
100
AcDb2dVertex
 10
0.1998697916666667
 20
21.44769287109375
 30
0.0
  0
VERTEX
  5
67
330
65
100
AcDbEntity
  8
Layer 1
370
     0
100
AcDbVertex
100
AcDb2dVertex
 10
1.186299641927083
 20
19.73918999565972
 30
0.0
  0
VERTEX
  5
68
330
65
100
AcDbEntity
  8
Layer 1
370
     0
100
AcDbVertex
100
AcDb2dVertex
 10
2.172722710503472
 20
21.44769287109375
 30
0.0
  0
SEQEND
  5
69
330
65
100
AcDbEntity
  8
Layer 1
370
     0
  0
POLYLINE
  5
6A
330
3C
100
AcDbEntity
  8
Layer 1
370
     0
100
AcDb2dPolyline
 66
     1
 10
0.0
 20
0.0
 30
0.0
  0
VERTEX
  5
6B
330
6A
100
AcDbEntity
  8
Layer 1
370
     0
100
AcDbVertex
100
AcDb2dVertex
 10
1.213962131076389
 20
21.44769287109375
 30
0.0
  0
VERTEX
  5
236
330
6A
100
AcDbEntity
  8
0
100
AcDbVertex
100
AcDb2dVertex
 10
1.213962131076389
 20
21.44769287109375
 30
0.0
  0
SEQEND
  5
6C
330
6A
100
AcDbEntity
  8
Layer 1
370
     0
  0
POLYLINE
  5
6D
330
3C
100
AcDbEntity
  8
Layer 1
370
     0
100
AcDb2dPolyline
 66
     1
 10
0.0
 20
0.0
 30
0.0
  0
VERTEX
  5
6E
330
6D
100
AcDbEntity
  8
Layer 1
370
     0
100
AcDbVertex
100
AcDb2dVertex
 10
3.15911865234375
 20
19.73914252387153
 30
0.0
  0
VERTEX
  5
6F
330
6D
100
AcDbEntity
  8
Layer 1
370
     0
100
AcDbVertex
100
AcDb2dVertex
 10
4.145555284288195
 20
21.44765896267361
 30
0.0
  0
SEQEND
  5
70
330
6D
100
AcDbEntity
  8
Layer 1
370
     0
  0
POLYLINE
  5
71
330
3C
100
AcDbEntity
  8
Layer 1
370
     0
100
AcDb2dPolyline
 66
     1
 10
0.0
 20
0.0
 30
0.0
  0
VERTEX
  5
72
330
71
100
AcDbEntity
  8
Layer 1
370
     0
100
AcDbVertex
100
AcDb2dVertex
 10
1.186299641927083
 20
19.73918999565972
 30
0.0
  0
VERTEX
  5
73
330
71
100
AcDbEntity
  8
Layer 1
370
     0
100
AcDbVertex
100
AcDb2dVertex
 10
3.159125434027778
 20
19.73915608723958
 30
0.0
  0
VERTEX
  5
74
330
71
100
AcDbEntity
  8
Layer 1
370
     0
100
AcDbVertex
100
AcDb2dVertex
 10
2.172722710503472
 20
21.4477064344618
 30
0.0
  0
SEQEND
  5
75
330
71
100
AcDbEntity
  8
Layer 1
370
     0
  0
POLYLINE
  5
76
330
3C
100
AcDbEntity
  8
Layer 1
370
     0
100
AcDb2dPolyline
 66
     1
 10
0.0
 20
0.0
 30
0.0
  0
VERTEX
  5
77
330
76
100
AcDbEntity
  8
Layer 1
370
     0
100
AcDbVertex
100
AcDb2dVertex
 10
5.131951226128472
 20
19.73911539713541
 30
0.0
  0
VERTEX
  5
78
330
76
100
AcDbEntity
  8
Layer 1
370
     0
100
AcDbVertex
100
AcDb2dVertex
 10
6.118367513020833
 20
21.4476318359375
 30
0.0
  0
SEQEND
  5
79
330
76
100
AcDbEntity
  8
Layer 1
370
     0
  0
POLYLINE
  5
7A
330
3C
100
AcDbEntity
  8
Layer 1
370
     0
100
AcDb2dPolyline
 66
     1
 10
0.0
 20
0.0
 30
0.0
  0
VERTEX
  5
7B
330
7A
100
AcDbEntity
  8
Layer 1
370
     0
100
AcDbVertex
100
AcDb2dVertex
 10
3.159125434027778
 20
19.73915608723958
 30
0.0
  0
VERTEX
  5
7C
330
7A
100
AcDbEntity
  8
Layer 1
370
     0
100
AcDbVertex
100
AcDb2dVertex
 10
5.131951226128472
 20
19.73912217881944
 30
0.0
  0
VERTEX
  5
7D
330
7A
100
AcDbEntity
  8
Layer 1
370
     0
100
AcDbVertex
100
AcDb2dVertex
 10
4.145555284288195
 20
21.44765896267361
 30
0.0
  0
SEQEND
  5
7E
330
7A
100
AcDbEntity
  8
Layer 1
370
     0
  0
POLYLINE
  5
7F
330
3C
100
AcDbEntity
  8
Layer 1
370
     0
100
AcDb2dPolyline
 66
     1
 10
0.0
 20
0.0
 30
0.0
  0
VERTEX
  5
80
330
7F
100
AcDbEntity
  8
Layer 1
370
     0
100
AcDbVertex
100
AcDb2dVertex
 10
7.104777018229166
 20
19.73908148871528
 30
0.0
  0
VERTEX
  5
81
330
7F
100
AcDbEntity
  8
Layer 1
370
     0
100
AcDbVertex
100
AcDb2dVertex
 10
8.091200086805555
 20
21.44759792751736
 30
0.0
  0
SEQEND
  5
82
330
7F
100
AcDbEntity
  8
Layer 1
370
     0
  0
POLYLINE
  5
83
330
3C
100
AcDbEntity
  8
Layer 1
370
     0
100
AcDb2dPolyline
 66
     1
 10
0.0
 20
0.0
 30
0.0
  0
VERTEX
  5
84
330
83
100
AcDbEntity
  8
Layer 1
370
     0
100
AcDbVertex
100
AcDb2dVertex
 10
5.131951226128472
 20
19.73912217881944
 30
0.0
  0
VERTEX
  5
85
330
83
100
AcDbEntity
  8
Layer 1
370
     0
100
AcDbVertex
100
AcDb2dVertex
 10
7.104777018229166
 20
19.73908148871528
 30
0.0
  0
VERTEX
  5
86
330
83
100
AcDbEntity
  8
Layer 1
370
     0
100
AcDbVertex
100
AcDb2dVertex
 10
6.118374294704861
 20
21.4476318359375
 30
0.0
  0
SEQEND
  5
87
330
83
100
AcDbEntity
  8
Layer 1
370
     0
  0
POLYLINE
  5
88
330
3C
100
AcDbEntity
  8
Layer 1
370
     0
100
AcDb2dPolyline
 66
     1
 10
0.0
 20
0.0
 30
0.0
  0
VERTEX
  5
89
330
88
100
AcDbEntity
  8
Layer 1
370
     0
100
AcDbVertex
100
AcDb2dVertex
 10
9.077589246961805
 20
19.73904758029514
 30
0.0
  0
VERTEX
  5
8A
330
88
100
AcDbEntity
  8
Layer 1
370
     0
100
AcDbVertex
100
AcDb2dVertex
 10
10.06403266059028
 20
21.44757080078125
 30
0.0
  0
SEQEND
  5
8B
330
88
100
AcDbEntity
  8
Layer 1
370
     0
  0
POLYLINE
  5
8C
330
3C
100
AcDbEntity
  8
Layer 1
370
     0
100
AcDb2dPolyline
 66
     1
 10
0.0
 20
0.0
 30
0.0
  0
VERTEX
  5
8D
330
8C
100
AcDbEntity
  8
Layer 1
370
     0
100
AcDbVertex
100
AcDb2dVertex
 10
7.104777018229166
 20
19.73908148871528
 30
0.0
  0
VERTEX
  5
8E
330
8C
100
AcDbEntity
  8
Layer 1
370
     0
100
AcDbVertex
100
AcDb2dVertex
 10
9.077589246961805
 20
19.73904758029514
 30
0.0
  0
VERTEX
  5
8F
330
8C
100
AcDbEntity
  8
Layer 1
370
     0
100
AcDbVertex
100
AcDb2dVertex
 10
8.091200086805555
 20
21.44759792751736
 30
0.0
  0
SEQEND
  5
90
330
8C
100
AcDbEntity
  8
Layer 1
370
     0
  0
SPLINE
  5
91
330
3C
100
AcDbEntity
  8
Layer 1
370
     0
100
AcDbSpline
210
0.0
220
0.0
230
1.0
 70
    11
 71
     3
 72
    29
 73
    25
 74
     0
 42
0.0000000001
 43
0.0000000001
 40
0.0
 40
0.0
 40
0.0
 40
0.0
 40
1.0
 40
1.0
 40
1.0
 40
2.0
 40
2.0
 40
2.0
 40
3.0
 40
3.0
 40
3.0
 40
4.0
 40
4.0
 40
4.0
 40
5.0
 40
5.0
 40
5.0
 40
6.0
 40
6.0
 40
6.0
 40
7.0
 40
7.0
 40
7.0
 40
8.0
 40
8.0
 40
8.0
 40
8.0
 10
9.451938205295138
 20
22.28605143229166
 30
0.0
 10
9.451938205295138
 20
22.24452718098958
 30
0.0
 10
9.418287489149305
 20
22.21085611979166
 30
0.0
 10
9.376763237847221
 20
22.21085611979166
 30
0.0
 10
9.376763237847221
 20
22.21085611979166
 30
0.0
 10
9.047119140625
 20
22.21085611979166
 30
0.0
 10
9.047119140625
 20
22.21085611979166
 30
0.0
 10
9.005594889322916
 20
22.21085611979166
 30
0.0
 10
8.971937391493055
 20
22.24452718098958
 30
0.0
 10
8.971937391493055
 20
22.28605143229166
 30
0.0
 10
8.971937391493055
 20
22.28605143229166
 30
0.0
 10
8.971937391493055
 20
22.61568196614583
 30
0.0
 10
8.971937391493055
 20
22.61568196614583
 30
0.0
 10
8.971937391493055
 20
22.65720621744791
 30
0.0
 10
9.005594889322916
 20
22.69086371527778
 30
0.0
 10
9.047119140625
 20
22.69086371527778
 30
0.0
 10
9.047119140625
 20
22.69086371527778
 30
0.0
 10
9.376763237847221
 20
22.69086371527778
 30
0.0
 10
9.376763237847221
 20
22.69086371527778
 30
0.0
 10
9.418287489149305
 20
22.69086371527778
 30
0.0
 10
9.451938205295138
 20
22.65720621744791
 30
0.0
 10
9.451938205295138
 20
22.61568196614583
 30
0.0
 10
9.451938205295138
 20
22.61568196614583
 30
0.0
 10
9.451938205295138
 20
22.28605143229166
 30
0.0
 10
9.451938205295138
 20
22.28605143229166
 30
0.0
  0
SPLINE
  5
92
330
3C
100
AcDbEntity
  8
Layer 1
370
     0
100
AcDbSpline
210
0.0
220
0.0
230
1.0
 70
    11
 71
     3
 72
    29
 73
    25
 74
     0
 42
0.0000000001
 43
0.0000000001
 40
0.0
 40
0.0
 40
0.0
 40
0.0
 40
1.0
 40
1.0
 40
1.0
 40
2.0
 40
2.0
 40
2.0
 40
3.0
 40
3.0
 40
3.0
 40
4.0
 40
4.0
 40
4.0
 40
5.0
 40
5.0
 40
5.0
 40
6.0
 40
6.0
 40
6.0
 40
7.0
 40
7.0
 40
7.0
 40
8.0
 40
8.0
 40
8.0
 40
8.0
 10
7.445685492621528
 20
22.28603786892361
 30
0.0
 10
7.445685492621528
 20
22.24452039930555
 30
0.0
 10
7.412034776475694
 20
22.21085611979166
 30
0.0
 10
7.370510525173611
 20
22.21085611979166
 30
0.0
 10
7.370510525173611
 20
22.21085611979166
 30
0.0
 10
7.040866427951388
 20
22.21085611979166
 30
0.0
 10
7.040866427951388
 20
22.21085611979166
 30
0.0
 10
6.999342176649305
 20
22.21085611979166
 30
0.0
 10
6.965684678819444
 20
22.24452039930555
 30
0.0
 10
6.965684678819444
 20
22.28603786892361
 30
0.0
 10
6.965684678819444
 20
22.28603786892361
 30
0.0
 10
6.965684678819444
 20
22.61568196614583
 30
0.0
 10
6.965684678819444
 20
22.61568196614583
 30
0.0
 10
6.965684678819444
 20
22.65719943576389
 30
0.0
 10
6.999342176649305
 20
22.69086371527778
 30
0.0
 10
7.040866427951388
 20
22.69086371527778
 30
0.0
 10
7.040866427951388
 20
22.69086371527778
 30
0.0
 10
7.370510525173611
 20
22.69086371527778
 30
0.0
 10
7.370510525173611
 20
22.69086371527778
 30
0.0
 10
7.412034776475694
 20
22.69086371527778
 30
0.0
 10
7.445685492621528
 20
22.65719943576389
 30
0.0
 10
7.445685492621528
 20
22.61568196614583
 30
0.0
 10
7.445685492621528
 20
22.61568196614583
 30
0.0
 10
7.445685492621528
 20
22.28603786892361
 30
0.0
 10
7.445685492621528
 20
22.28603786892361
 30
0.0
  0
SPLINE
  5
93
330
3C
100
AcDbEntity
  8
Layer 1
370
     0
100
AcDbSpline
210
0.0
220
0.0
230
1.0
 70
    11
 71
     3
 72
    29
 73
    25
 74
     0
 42
0.0000000001
 43
0.0000000001
 40
0.0
 40
0.0
 40
0.0
 40
0.0
 40
1.0
 40
1.0
 40
1.0
 40
2.0
 40
2.0
 40
2.0
 40
3.0
 40
3.0
 40
3.0
 40
4.0
 40
4.0
 40
4.0
 40
5.0
 40
5.0
 40
5.0
 40
6.0
 40
6.0
 40
6.0
 40
7.0
 40
7.0
 40
7.0
 40
8.0
 40
8.0
 40
8.0
 40
8.0
 10
5.447787814670138
 20
22.28605143229166
 30
0.0
 10
5.447787814670138
 20
22.24452718098958
 30
0.0
 10
5.414137098524305
 20
22.21085611979166
 30
0.0
 10
5.372612847222222
 20
22.21085611979166
 30
0.0
 10
5.372612847222222
 20
22.21085611979166
 30
0.0
 10
5.04296875
 20
22.21085611979166
 30
0.0
 10
5.04296875
 20
22.21085611979166
 30
0.0
 10
5.001444498697916
 20
22.21085611979166
 30
0.0
 10
4.967793782552083
 20
22.24452718098958
 30
0.0
 10
4.967793782552083
 20
22.28605143229166
 30
0.0
 10
4.967793782552083
 20
22.28605143229166
 30
0.0
 10
4.967793782552083
 20
22.61568196614583
 30
0.0
 10
4.967793782552083
 20
22.61568196614583
 30
0.0
 10
4.967793782552083
 20
22.65720621744791
 30
0.0
 10
5.001444498697916
 20
22.69086371527778
 30
0.0
 10
5.04296875
 20
22.69086371527778
 30
0.0
 10
5.04296875
 20
22.69086371527778
 30
0.0
 10
5.372612847222222
 20
22.69086371527778
 30
0.0
 10
5.372612847222222
 20
22.69086371527778
 30
0.0
 10
5.414137098524305
 20
22.69086371527778
 30
0.0
 10
5.447787814670138
 20
22.65720621744791
 30
0.0
 10
5.447787814670138
 20
22.61568196614583
 30
0.0
 10
5.447787814670138
 20
22.61568196614583
 30
0.0
 10
5.447787814670138
 20
22.28605143229166
 30
0.0
 10
5.447787814670138
 20
22.28605143229166
 30
0.0
  0
SPLINE
  5
94
330
3C
100
AcDbEntity
  8
Layer 1
370
     0
100
AcDbSpline
210
0.0
220
0.0
230
1.0
 70
    11
 71
     3
 72
    29
 73
    25
 74
     0
 42
0.0000000001
 43
0.0000000001
 40
0.0
 40
0.0
 40
0.0
 40
0.0
 40
1.0
 40
1.0
 40
1.0
 40
2.0
 40
2.0
 40
2.0
 40
3.0
 40
3.0
 40
3.0
 40
4.0
 40
4.0
 40
4.0
 40
5.0
 40
5.0
 40
5.0
 40
6.0
 40
6.0
 40
6.0
 40
7.0
 40
7.0
 40
7.0
 40
8.0
 40
8.0
 40
8.0
 40
8.0
 10
3.399115668402778
 20
22.28605143229166
 30
0.0
 10
3.399115668402778
 20
22.24452718098958
 30
0.0
 10
3.365464952256944
 20
22.21085611979166
 30
0.0
 10
3.323940700954861
 20
22.21085611979166
 30
0.0
 10
3.323940700954861
 20
22.21085611979166
 30
0.0
 10
2.994296603732639
 20
22.21085611979166
 30
0.0
 10
2.994296603732639
 20
22.21085611979166
 30
0.0
 10
2.952772352430555
 20
22.21085611979166
 30
0.0
 10
2.919121636284722
 20
22.24452718098958
 30
0.0
 10
2.919121636284722
 20
22.28605143229166
 30
0.0
 10
2.919121636284722
 20
22.28605143229166
 30
0.0
 10
2.919121636284722
 20
22.61568196614583
 30
0.0
 10
2.919121636284722
 20
22.61568196614583
 30
0.0
 10
2.919121636284722
 20
22.65720621744791
 30
0.0
 10
2.952772352430555
 20
22.69086371527778
 30
0.0
 10
2.994296603732639
 20
22.69086371527778
 30
0.0
 10
2.994296603732639
 20
22.69086371527778
 30
0.0
 10
3.323940700954861
 20
22.69086371527778
 30
0.0
 10
3.323940700954861
 20
22.69086371527778
 30
0.0
 10
3.365464952256944
 20
22.69086371527778
 30
0.0
 10
3.399115668402778
 20
22.65720621744791
 30
0.0
 10
3.399115668402778
 20
22.61568196614583
 30
0.0
 10
3.399115668402778
 20
22.61568196614583
 30
0.0
 10
3.399115668402778
 20
22.28605143229166
 30
0.0
 10
3.399115668402778
 20
22.28605143229166
 30
0.0
  0
SPLINE
  5
95
330
3C
100
AcDbEntity
  8
Layer 1
370
     0
100
AcDbSpline
210
0.0
220
0.0
230
1.0
 70
    11
 71
     3
 72
    29
 73
    25
 74
     0
 42
0.0000000001
 43
0.0000000001
 40
0.0
 40
0.0
 40
0.0
 40
0.0
 40
1.0
 40
1.0
 40
1.0
 40
2.0
 40
2.0
 40
2.0
 40
3.0
 40
3.0
 40
3.0
 40
4.0
 40
4.0
 40
4.0
 40
5.0
 40
5.0
 40
5.0
 40
6.0
 40
6.0
 40
6.0
 40
7.0
 40
7.0
 40
7.0
 40
8.0
 40
8.0
 40
8.0
 40
8.0
 10
1.426934136284722
 20
22.28603786892361
 30
0.0
 10
1.426934136284722
 20
22.24452039930555
 30
0.0
 10
1.393283420138889
 20
22.21085611979166
 30
0.0
 10
1.351752387152778
 20
22.21085611979166
 30
0.0
 10
1.351752387152778
 20
22.21085611979166
 30
0.0
 10
1.022108289930556
 20
22.21085611979166
 30
0.0
 10
1.022108289930556
 20
22.21085611979166
 30
0.0
 10
0.9805908203125
 20
22.21085611979166
 30
0.0
 10
0.9469401041666666
 20
22.24452039930555
 30
0.0
 10
0.9469401041666666
 20
22.28603786892361
 30
0.0
 10
0.9469401041666666
 20
22.28603786892361
 30
0.0
 10
0.9469401041666666
 20
22.61568196614583
 30
0.0
 10
0.9469401041666666
 20
22.61568196614583
 30
0.0
 10
0.9469401041666666
 20
22.65719943576389
 30
0.0
 10
0.9805908203125
 20
22.69086371527778
 30
0.0
 10
1.022108289930556
 20
22.69086371527778
 30
0.0
 10
1.022108289930556
 20
22.69086371527778
 30
0.0
 10
1.351752387152778
 20
22.69086371527778
 30
0.0
 10
1.351752387152778
 20
22.69086371527778
 30
0.0
 10
1.393283420138889
 20
22.69086371527778
 30
0.0
 10
1.426934136284722
 20
22.65719943576389
 30
0.0
 10
1.426934136284722
 20
22.61568196614583
 30
0.0
 10
1.426934136284722
 20
22.61568196614583
 30
0.0
 10
1.426934136284722
 20
22.28603786892361
 30
0.0
 10
1.426934136284722
 20
22.28603786892361
 30
0.0
  0
ENDBLK
  5
3F
330
3C
100
AcDbEntity
  8
0
100
AcDbBlockEnd
  0
BLOCK
  5
98
330
96
100
AcDbEntity
  8
0
100
AcDbBlockBegin
  2
block 3
 70
     0
 71
     0
 10
0.0
 20
0.0
 30
0.0
  3
block 3
  1

  0
POLYLINE
  5
9A
330
96
100
AcDbEntity
  8
Layer 1
370
     0
100
AcDb2dPolyline
 66
     1
 10
0.0
 20
0.0
 30
0.0
  0
VERTEX
  5
9B
330
9A
100
AcDbEntity
  8
Layer 1
370
     0
100
AcDbVertex
100
AcDb2dVertex
 10
22.36705186631944
 20
19.32198079427083
 30
0.0
  0
VERTEX
  5
9C
330
9A
100
AcDbEntity
  8
Layer 1
370
     0
100
AcDbVertex
100
AcDb2dVertex
 10
22.36705186631944
 20
21.32830810546875
 30
0.0
  0
VERTEX
  5
9D
330
9A
100
AcDbEntity
  8
Layer 1
370
     0
100
AcDbVertex
100
AcDb2dVertex
 10
20.36088053385416
 20
21.32830810546875
 30
0.0
  0
VERTEX
  5
9E
330
9A
100
AcDbEntity
  8
Layer 1
370
     0
100
AcDbVertex
100
AcDb2dVertex
 10
20.36081271701389
 20
19.32198079427083
 30
0.0
  0
VERTEX
  5
9F
330
9A
100
AcDbEntity
  8
Layer 1
370
     0
100
AcDbVertex
100
AcDb2dVertex
 10
22.36705186631944
 20
19.32198079427083
 30
0.0
  0
SEQEND
  5
A0
330
9A
100
AcDbEntity
  8
Layer 1
370
     0
  0
POLYLINE
  5
A1
330
96
100
AcDbEntity
  8
Layer 1
370
     0
100
AcDb2dPolyline
 66
     1
 10
0.0
 20
0.0
 30
0.0
  0
VERTEX
  5
A2
330
A1
100
AcDbEntity
  8
Layer 1
370
     0
100
AcDbVertex
100
AcDb2dVertex
 10
20.36081271701389
 20
21.32830810546875
 30
0.0
  0
VERTEX
  5
A3
330
A1
100
AcDbEntity
  8
Layer 1
370
     0
100
AcDbVertex
100
AcDb2dVertex
 10
18.35463460286458
 20
21.32830810546875
 30
0.0
  0
VERTEX
  5
A4
330
A1
100
AcDbEntity
  8
Layer 1
370
     0
100
AcDbVertex
100
AcDb2dVertex
 10
18.35455322265625
 20
19.32198079427083
 30
0.0
  0
VERTEX
  5
A5
330
A1
100
AcDbEntity
  8
Layer 1
370
     0
100
AcDbVertex
100
AcDb2dVertex
 10
20.36081271701389
 20
19.32198079427083
 30
0.0
  0
SEQEND
  5
A6
330
A1
100
AcDbEntity
  8
Layer 1
370
     0
  0
POLYLINE
  5
A7
330
96
100
AcDbEntity
  8
Layer 1
370
     0
100
AcDb2dPolyline
 66
     1
 10
0.0
 20
0.0
 30
0.0
  0
VERTEX
  5
A8
330
A7
100
AcDbEntity
  8
Layer 1
370
     0
100
AcDbVertex
100
AcDb2dVertex
 10
18.34620496961805
 20
21.32830810546875
 30
0.0
  0
VERTEX
  5
A9
330
A7
100
AcDbEntity
  8
Layer 1
370
     0
100
AcDbVertex
100
AcDb2dVertex
 10
16.34002685546875
 20
21.32830810546875
 30
0.0
  0
VERTEX
  5
AA
330
A7
100
AcDbEntity
  8
Layer 1
370
     0
100
AcDbVertex
100
AcDb2dVertex
 10
16.33995225694444
 20
19.32198079427083
 30
0.0
  0
VERTEX
  5
AB
330
A7
100
AcDbEntity
  8
Layer 1
370
     0
100
AcDbVertex
100
AcDb2dVertex
 10
18.34620496961805
 20
19.32198079427083
 30
0.0
  0
SEQEND
  5
AC
330
A7
100
AcDbEntity
  8
Layer 1
370
     0
  0
POLYLINE
  5
AD
330
96
100
AcDbEntity
  8
Layer 1
370
     0
100
AcDb2dPolyline
 66
     1
 10
0.0
 20
0.0
 30
0.0
  0
VERTEX
  5
AE
330
AD
100
AcDbEntity
  8
Layer 1
370
     0
100
AcDbVertex
100
AcDb2dVertex
 10
16.34831407335069
 20
21.32830810546875
 30
0.0
  0
VERTEX
  5
AF
330
AD
100
AcDbEntity
  8
Layer 1
370
     0
100
AcDbVertex
100
AcDb2dVertex
 10
14.34213595920139
 20
21.32830810546875
 30
0.0
  0
VERTEX
  5
B0
330
AD
100
AcDbEntity
  8
Layer 1
370
     0
100
AcDbVertex
100
AcDb2dVertex
 10
14.34204779730903
 20
19.32198079427083
 30
0.0
  0
VERTEX
  5
B1
330
AD
100
AcDbEntity
  8
Layer 1
370
     0
100
AcDbVertex
100
AcDb2dVertex
 10
16.34831407335069
 20
19.32198079427083
 30
0.0
  0
SEQEND
  5
B2
330
AD
100
AcDbEntity
  8
Layer 1
370
     0
  0
POLYLINE
  5
B3
330
96
100
AcDbEntity
  8
Layer 1
370
     0
100
AcDb2dPolyline
 66
     1
 10
0.0
 20
0.0
 30
0.0
  0
VERTEX
  5
B4
330
B3
100
AcDbEntity
  8
Layer 1
370
     0
100
AcDbVertex
100
AcDb2dVertex
 10
14.34204779730903
 20
21.32830810546875
 30
0.0
  0
VERTEX
  5
B5
330
B3
100
AcDbEntity
  8
Layer 1
370
     0
100
AcDbVertex
100
AcDb2dVertex
 10
12.33587646484375
 20
21.32830810546875
 30
0.0
  0
VERTEX
  5
B6
330
B3
100
AcDbEntity
  8
Layer 1
370
     0
100
AcDbVertex
100
AcDb2dVertex
 10
12.33580864800347
 20
19.32198079427083
 30
0.0
  0
VERTEX
  5
B7
330
B3
100
AcDbEntity
  8
Layer 1
370
     0
100
AcDbVertex
100
AcDb2dVertex
 10
14.34204779730903
 20
19.32198079427083
 30
0.0
  0
SEQEND
  5
B8
330
B3
100
AcDbEntity
  8
Layer 1
370
     0
  0
POLYLINE
  5
B9
330
96
100
AcDbEntity
  8
Layer 1
370
     0
100
AcDb2dPolyline
 66
     1
 10
0.0
 20
0.0
 30
0.0
  0
VERTEX
  5
BA
330
B9
100
AcDbEntity
  8
Layer 1
370
     0
100
AcDbVertex
100
AcDb2dVertex
 10
12.33580864800347
 20
21.32830810546875
 30
0.0
  0
VERTEX
  5
BB
330
B9
100
AcDbEntity
  8
Layer 1
370
     0
100
AcDbVertex
100
AcDb2dVertex
 10
10.32963731553819
 20
21.32830810546875
 30
0.0
  0
VERTEX
  5
BC
330
B9
100
AcDbEntity
  8
Layer 1
370
     0
100
AcDbVertex
100
AcDb2dVertex
 10
10.32955593532986
 20
19.32198079427083
 30
0.0
  0
VERTEX
  5
BD
330
B9
100
AcDbEntity
  8
Layer 1
370
     0
100
AcDbVertex
100
AcDb2dVertex
 10
12.33580864800347
 20
19.32198079427083
 30
0.0
  0
SEQEND
  5
BE
330
B9
100
AcDbEntity
  8
Layer 1
370
     0
  0
POLYLINE
  5
BF
330
96
100
AcDbEntity
  8
Layer 1
370
     0
100
AcDb2dPolyline
 66
     1
 10
0.0
 20
0.0
 30
0.0
  0
VERTEX
  5
C0
330
BF
100
AcDbEntity
  8
Layer 1
370
     0
100
AcDbVertex
100
AcDb2dVertex
 10
22.35099283854166
 20
21.32830810546875
 30
0.0
  0
VERTEX
  5
C1
330
BF
100
AcDbEntity
  8
Layer 1
370
     0
100
AcDbVertex
100
AcDb2dVertex
 10
21.36456976996528
 20
23.03681098090278
 30
0.0
  0
VERTEX
  5
C2
330
BF
100
AcDbEntity
  8
Layer 1
370
     0
100
AcDbVertex
100
AcDb2dVertex
 10
20.37814670138889
 20
21.32830810546875
 30
0.0
  0
SEQEND
  5
C3
330
BF
100
AcDbEntity
  8
Layer 1
370
     0
  0
POLYLINE
  5
C4
330
96
100
AcDbEntity
  8
Layer 1
370
     0
100
AcDb2dPolyline
 66
     1
 10
0.0
 20
0.0
 30
0.0
  0
VERTEX
  5
C5
330
C4
100
AcDbEntity
  8
Layer 1
370
     0
100
AcDbVertex
100
AcDb2dVertex
 10
21.3369140625
 20
21.32830810546875
 30
0.0
  0
VERTEX
  5
237
330
C4
100
AcDbEntity
  8
0
100
AcDbVertex
100
AcDb2dVertex
 10
21.3369140625
 20
21.32830810546875
 30
0.0
  0
SEQEND
  5
C6
330
C4
100
AcDbEntity
  8
Layer 1
370
     0
  0
POLYLINE
  5
C7
330
96
100
AcDbEntity
  8
Layer 1
370
     0
100
AcDb2dPolyline
 66
     1
 10
0.0
 20
0.0
 30
0.0
  0
VERTEX
  5
C8
330
C7
100
AcDbEntity
  8
Layer 1
370
     0
100
AcDbVertex
100
AcDb2dVertex
 10
19.39175075954861
 20
23.03685845269097
 30
0.0
  0
VERTEX
  5
C9
330
C7
100
AcDbEntity
  8
Layer 1
370
     0
100
AcDbVertex
100
AcDb2dVertex
 10
18.40531412760416
 20
21.32834201388889
 30
0.0
  0
SEQEND
  5
CA
330
C7
100
AcDbEntity
  8
Layer 1
370
     0
  0
POLYLINE
  5
CB
330
96
100
AcDbEntity
  8
Layer 1
370
     0
100
AcDb2dPolyline
 66
     1
 10
0.0
 20
0.0
 30
0.0
  0
VERTEX
  5
CC
330
CB
100
AcDbEntity
  8
Layer 1
370
     0
100
AcDbVertex
100
AcDb2dVertex
 10
21.36456976996528
 20
23.03681098090278
 30
0.0
  0
VERTEX
  5
CD
330
CB
100
AcDbEntity
  8
Layer 1
370
     0
100
AcDbVertex
100
AcDb2dVertex
 10
19.39173719618055
 20
23.03684488932291
 30
0.0
  0
VERTEX
  5
CE
330
CB
100
AcDbEntity
  8
Layer 1
370
     0
100
AcDbVertex
100
AcDb2dVertex
 10
20.37814670138889
 20
21.32829454210069
 30
0.0
  0
SEQEND
  5
CF
330
CB
100
AcDbEntity
  8
Layer 1
370
     0
  0
POLYLINE
  5
D0
330
96
100
AcDbEntity
  8
Layer 1
370
     0
100
AcDb2dPolyline
 66
     1
 10
0.0
 20
0.0
 30
0.0
  0
VERTEX
  5
D1
330
D0
100
AcDbEntity
  8
Layer 1
370
     0
100
AcDbVertex
100
AcDb2dVertex
 10
17.41891818576389
 20
23.03688557942708
 30
0.0
  0
VERTEX
  5
D2
330
D0
100
AcDbEntity
  8
Layer 1
370
     0
100
AcDbVertex
100
AcDb2dVertex
 10
16.43250189887153
 20
21.328369140625
 30
0.0
  0
SEQEND
  5
D3
330
D0
100
AcDbEntity
  8
Layer 1
370
     0
  0
POLYLINE
  5
D4
330
96
100
AcDbEntity
  8
Layer 1
370
     0
100
AcDb2dPolyline
 66
     1
 10
0.0
 20
0.0
 30
0.0
  0
VERTEX
  5
D5
330
D4
100
AcDbEntity
  8
Layer 1
370
     0
100
AcDbVertex
100
AcDb2dVertex
 10
19.39173719618055
 20
23.03684488932291
 30
0.0
  0
VERTEX
  5
D6
330
D4
100
AcDbEntity
  8
Layer 1
370
     0
100
AcDbVertex
100
AcDb2dVertex
 10
17.41891818576389
 20
23.03687879774305
 30
0.0
  0
VERTEX
  5
D7
330
D4
100
AcDbEntity
  8
Layer 1
370
     0
100
AcDbVertex
100
AcDb2dVertex
 10
18.40531412760416
 20
21.32834201388889
 30
0.0
  0
SEQEND
  5
D8
330
D4
100
AcDbEntity
  8
Layer 1
370
     0
  0
POLYLINE
  5
D9
330
96
100
AcDbEntity
  8
Layer 1
370
     0
100
AcDb2dPolyline
 66
     1
 10
0.0
 20
0.0
 30
0.0
  0
VERTEX
  5
DA
330
D9
100
AcDbEntity
  8
Layer 1
370
     0
100
AcDbVertex
100
AcDb2dVertex
 10
15.44609239366319
 20
23.03691948784722
 30
0.0
  0
VERTEX
  5
DB
330
D9
100
AcDbEntity
  8
Layer 1
370
     0
100
AcDbVertex
100
AcDb2dVertex
 10
14.45966932508681
 20
21.32840304904514
 30
0.0
  0
SEQEND
  5
DC
330
D9
100
AcDbEntity
  8
Layer 1
370
     0
  0
POLYLINE
  5
DD
330
96
100
AcDbEntity
  8
Layer 1
370
     0
100
AcDb2dPolyline
 66
     1
 10
0.0
 20
0.0
 30
0.0
  0
VERTEX
  5
DE
330
DD
100
AcDbEntity
  8
Layer 1
370
     0
100
AcDbVertex
100
AcDb2dVertex
 10
17.41891818576389
 20
23.03687879774305
 30
0.0
  0
VERTEX
  5
DF
330
DD
100
AcDbEntity
  8
Layer 1
370
     0
100
AcDbVertex
100
AcDb2dVertex
 10
15.44609239366319
 20
23.03691948784722
 30
0.0
  0
VERTEX
  5
E0
330
DD
100
AcDbEntity
  8
Layer 1
370
     0
100
AcDbVertex
100
AcDb2dVertex
 10
16.4324951171875
 20
21.328369140625
 30
0.0
  0
SEQEND
  5
E1
330
DD
100
AcDbEntity
  8
Layer 1
370
     0
  0
POLYLINE
  5
E2
330
96
100
AcDbEntity
  8
Layer 1
370
     0
100
AcDb2dPolyline
 66
     1
 10
0.0
 20
0.0
 30
0.0
  0
VERTEX
  5
E3
330
E2
100
AcDbEntity
  8
Layer 1
370
     0
100
AcDbVertex
100
AcDb2dVertex
 10
13.47328016493056
 20
23.03695339626736
 30
0.0
  0
VERTEX
  5
E4
330
E2
100
AcDbEntity
  8
Layer 1
370
     0
100
AcDbVertex
100
AcDb2dVertex
 10
12.48683675130208
 20
21.32843017578125
 30
0.0
  0
SEQEND
  5
E5
330
E2
100
AcDbEntity
  8
Layer 1
370
     0
  0
POLYLINE
  5
E6
330
96
100
AcDbEntity
  8
Layer 1
370
     0
100
AcDb2dPolyline
 66
     1
 10
0.0
 20
0.0
 30
0.0
  0
VERTEX
  5
E7
330
E6
100
AcDbEntity
  8
Layer 1
370
     0
100
AcDbVertex
100
AcDb2dVertex
 10
15.44609239366319
 20
23.03691948784722
 30
0.0
  0
VERTEX
  5
E8
330
E6
100
AcDbEntity
  8
Layer 1
370
     0
100
AcDbVertex
100
AcDb2dVertex
 10
13.47328016493056
 20
23.03695339626736
 30
0.0
  0
VERTEX
  5
E9
330
E6
100
AcDbEntity
  8
Layer 1
370
     0
100
AcDbVertex
100
AcDb2dVertex
 10
14.45966932508681
 20
21.32840304904514
 30
0.0
  0
SEQEND
  5
EA
330
E6
100
AcDbEntity
  8
Layer 1
370
     0
  0
SPLINE
  5
EB
330
96
100
AcDbEntity
  8
Layer 1
370
     0
100
AcDbSpline
210
0.0
220
0.0
230
1.0
 70
    11
 71
     3
 72
    29
 73
    25
 74
     0
 42
0.0000000001
 43
0.0000000001
 40
0.0
 40
0.0
 40
0.0
 40
0.0
 40
1.0
 40
1.0
 40
1.0
 40
2.0
 40
2.0
 40
2.0
 40
3.0
 40
3.0
 40
3.0
 40
4.0
 40
4.0
 40
4.0
 40
5.0
 40
5.0
 40
5.0
 40
6.0
 40
6.0
 40
6.0
 40
7.0
 40
7.0
 40
7.0
 40
8.0
 40
8.0
 40
8.0
 40
8.0
 10
13.09893120659722
 20
20.48994954427083
 30
0.0
 10
13.09893120659722
 20
20.53147379557291
 30
0.0
 10
13.13258192274306
 20
20.56514485677083
 30
0.0
 10
13.17410617404514
 20
20.56514485677083
 30
0.0
 10
13.17410617404514
 20
20.56514485677083
 30
0.0
 10
13.50375027126736
 20
20.56514485677083
 30
0.0
 10
13.50375027126736
 20
20.56514485677083
 30
0.0
 10
13.54527452256944
 20
20.56514485677083
 30
0.0
 10
13.57893202039931
 20
20.53147379557291
 30
0.0
 10
13.57893202039931
 20
20.48994954427083
 30
0.0
 10
13.57893202039931
 20
20.48994954427083
 30
0.0
 10
13.57893202039931
 20
20.16031901041666
 30
0.0
 10
13.57893202039931
 20
20.16031901041666
 30
0.0
 10
13.57893202039931
 20
20.11879475911458
 30
0.0
 10
13.54527452256944
 20
20.08513726128472
 30
0.0
 10
13.50375027126736
 20
20.08513726128472
 30
0.0
 10
13.50375027126736
 20
20.08513726128472
 30
0.0
 10
13.17410617404514
 20
20.08513726128472
 30
0.0
 10
13.17410617404514
 20
20.08513726128472
 30
0.0
 10
13.13258192274306
 20
20.08513726128472
 30
0.0
 10
13.09893120659722
 20
20.11879475911458
 30
0.0
 10
13.09893120659722
 20
20.16031901041666
 30
0.0
 10
13.09893120659722
 20
20.16031901041666
 30
0.0
 10
13.09893120659722
 20
20.48994954427083
 30
0.0
 10
13.09893120659722
 20
20.48994954427083
 30
0.0
  0
SPLINE
  5
EC
330
96
100
AcDbEntity
  8
Layer 1
370
     0
100
AcDbSpline
210
0.0
220
0.0
230
1.0
 70
    11
 71
     3
 72
    29
 73
    25
 74
     0
 42
0.0000000001
 43
0.0000000001
 40
0.0
 40
0.0
 40
0.0
 40
0.0
 40
1.0
 40
1.0
 40
1.0
 40
2.0
 40
2.0
 40
2.0
 40
3.0
 40
3.0
 40
3.0
 40
4.0
 40
4.0
 40
4.0
 40
5.0
 40
5.0
 40
5.0
 40
6.0
 40
6.0
 40
6.0
 40
7.0
 40
7.0
 40
7.0
 40
8.0
 40
8.0
 40
8.0
 40
8.0
 10
15.10518391927083
 20
20.48996310763889
 30
0.0
 10
15.10518391927083
 20
20.53148057725694
 30
0.0
 10
15.13883463541667
 20
20.56514485677083
 30
0.0
 10
15.18035888671875
 20
20.56514485677083
 30
0.0
 10
15.18035888671875
 20
20.56514485677083
 30
0.0
 10
15.51000298394097
 20
20.56514485677083
 30
0.0
 10
15.51000298394097
 20
20.56514485677083
 30
0.0
 10
15.55152723524306
 20
20.56514485677083
 30
0.0
 10
15.58518473307292
 20
20.53148057725694
 30
0.0
 10
15.58518473307292
 20
20.48996310763889
 30
0.0
 10
15.58518473307292
 20
20.48996310763889
 30
0.0
 10
15.58518473307292
 20
20.16031901041666
 30
0.0
 10
15.58518473307292
 20
20.16031901041666
 30
0.0
 10
15.58518473307292
 20
20.11880154079861
 30
0.0
 10
15.55152723524306
 20
20.08513726128472
 30
0.0
 10
15.51000298394097
 20
20.08513726128472
 30
0.0
 10
15.51000298394097
 20
20.08513726128472
 30
0.0
 10
15.18035888671875
 20
20.08513726128472
 30
0.0
 10
15.18035888671875
 20
20.08513726128472
 30
0.0
 10
15.13883463541667
 20
20.08513726128472
 30
0.0
 10
15.10518391927083
 20
20.11880154079861
 30
0.0
 10
15.10518391927083
 20
20.16031901041666
 30
0.0
 10
15.10518391927083
 20
20.16031901041666
 30
0.0
 10
15.10518391927083
 20
20.48996310763889
 30
0.0
 10
15.10518391927083
 20
20.48996310763889
 30
0.0
  0
SPLINE
  5
ED
330
96
100
AcDbEntity
  8
Layer 1
370
     0
100
AcDbSpline
210
0.0
220
0.0
230
1.0
 70
    11
 71
     3
 72
    29
 73
    25
 74
     0
 42
0.0000000001
 43
0.0000000001
 40
0.0
 40
0.0
 40
0.0
 40
0.0
 40
1.0
 40
1.0
 40
1.0
 40
2.0
 40
2.0
 40
2.0
 40
3.0
 40
3.0
 40
3.0
 40
4.0
 40
4.0
 40
4.0
 40
5.0
 40
5.0
 40
5.0
 40
6.0
 40
6.0
 40
6.0
 40
7.0
 40
7.0
 40
7.0
 40
8.0
 40
8.0
 40
8.0
 40
8.0
 10
17.10308159722222
 20
20.48994954427083
 30
0.0
 10
17.10308159722222
 20
20.53147379557291
 30
0.0
 10
17.13673231336805
 20
20.56514485677083
 30
0.0
 10
17.17825656467014
 20
20.56514485677083
 30
0.0
 10
17.17825656467014
 20
20.56514485677083
 30
0.0
 10
17.50790066189236
 20
20.56514485677083
 30
0.0
 10
17.50790066189236
 20
20.56514485677083
 30
0.0
 10
17.54942491319444
 20
20.56514485677083
 30
0.0
 10
17.58307562934028
 20
20.53147379557291
 30
0.0
 10
17.58307562934028
 20
20.48994954427083
 30
0.0
 10
17.58307562934028
 20
20.48994954427083
 30
0.0
 10
17.58307562934028
 20
20.16031901041666
 30
0.0
 10
17.58307562934028
 20
20.16031901041666
 30
0.0
 10
17.58307562934028
 20
20.11879475911458
 30
0.0
 10
17.54942491319444
 20
20.08513726128472
 30
0.0
 10
17.50790066189236
 20
20.08513726128472
 30
0.0
 10
17.50790066189236
 20
20.08513726128472
 30
0.0
 10
17.17825656467014
 20
20.08513726128472
 30
0.0
 10
17.17825656467014
 20
20.08513726128472
 30
0.0
 10
17.13673231336805
 20
20.08513726128472
 30
0.0
 10
17.10308159722222
 20
20.11879475911458
 30
0.0
 10
17.10308159722222
 20
20.16031901041666
 30
0.0
 10
17.10308159722222
 20
20.16031901041666
 30
0.0
 10
17.10308159722222
 20
20.48994954427083
 30
0.0
 10
17.10308159722222
 20
20.48994954427083
 30
0.0
  0
SPLINE
  5
EE
330
96
100
AcDbEntity
  8
Layer 1
370
     0
100
AcDbSpline
210
0.0
220
0.0
230
1.0
 70
    11
 71
     3
 72
    29
 73
    25
 74
     0
 42
0.0000000001
 43
0.0000000001
 40
0.0
 40
0.0
 40
0.0
 40
0.0
 40
1.0
 40
1.0
 40
1.0
 40
2.0
 40
2.0
 40
2.0
 40
3.0
 40
3.0
 40
3.0
 40
4.0
 40
4.0
 40
4.0
 40
5.0
 40
5.0
 40
5.0
 40
6.0
 40
6.0
 40
6.0
 40
7.0
 40
7.0
 40
7.0
 40
8.0
 40
8.0
 40
8.0
 40
8.0
 10
19.15174696180555
 20
20.48994954427083
 30
0.0
 10
19.15174696180555
 20
20.53147379557291
 30
0.0
 10
19.18541124131944
 20
20.56514485677083
 30
0.0
 10
19.2269287109375
 20
20.56514485677083
 30
0.0
 10
19.2269287109375
 20
20.56514485677083
 30
0.0
 10
19.55657280815972
 20
20.56514485677083
 30
0.0
 10
19.55657280815972
 20
20.56514485677083
 30
0.0
 10
19.59809027777778
 20
20.56514485677083
 30
0.0
 10
19.63175455729166
 20
20.53147379557291
 30
0.0
 10
19.63175455729166
 20
20.48994954427083
 30
0.0
 10
19.63175455729166
 20
20.48994954427083
 30
0.0
 10
19.63175455729166
 20
20.16031901041666
 30
0.0
 10
19.63175455729166
 20
20.16031901041666
 30
0.0
 10
19.63175455729166
 20
20.11879475911458
 30
0.0
 10
19.59809027777778
 20
20.08513726128472
 30
0.0
 10
19.55657280815972
 20
20.08513726128472
 30
0.0
 10
19.55657280815972
 20
20.08513726128472
 30
0.0
 10
19.2269287109375
 20
20.08513726128472
 30
0.0
 10
19.2269287109375
 20
20.08513726128472
 30
0.0
 10
19.18541124131944
 20
20.08513726128472
 30
0.0
 10
19.15174696180555
 20
20.11879475911458
 30
0.0
 10
19.15174696180555
 20
20.16031901041666
 30
0.0
 10
19.15174696180555
 20
20.16031901041666
 30
0.0
 10
19.15174696180555
 20
20.48994954427083
 30
0.0
 10
19.15174696180555
 20
20.48994954427083
 30
0.0
  0
SPLINE
  5
EF
330
96
100
AcDbEntity
  8
Layer 1
370
     0
100
AcDbSpline
210
0.0
220
0.0
230
1.0
 70
    11
 71
     3
 72
    29
 73
    25
 74
     0
 42
0.0000000001
 43
0.0000000001
 40
0.0
 40
0.0
 40
0.0
 40
0.0
 40
1.0
 40
1.0
 40
1.0
 40
2.0
 40
2.0
 40
2.0
 40
3.0
 40
3.0
 40
3.0
 40
4.0
 40
4.0
 40
4.0
 40
5.0
 40
5.0
 40
5.0
 40
6.0
 40
6.0
 40
6.0
 40
7.0
 40
7.0
 40
7.0
 40
8.0
 40
8.0
 40
8.0
 40
8.0
 10
21.12394205729166
 20
20.48996310763889
 30
0.0
 10
21.12394205729166
 20
20.53148057725694
 30
0.0
 10
21.15757921006944
 20
20.56514485677083
 30
0.0
 10
21.19911024305555
 20
20.56514485677083
 30
0.0
 10
21.19911024305555
 20
20.56514485677083
 30
0.0
 10
21.52875434027778
 20
20.56514485677083
 30
0.0
 10
21.52875434027778
 20
20.56514485677083
 30
0.0
 10
21.57028537326389
 20
20.56514485677083
 30
0.0
 10
21.60392252604166
 20
20.53148057725694
 30
0.0
 10
21.60392252604166
 20
20.48996310763889
 30
0.0
 10
21.60392252604166
 20
20.48996310763889
 30
0.0
 10
21.60392252604166
 20
20.16031901041666
 30
0.0
 10
21.60392252604166
 20
20.16031901041666
 30
0.0
 10
21.60392252604166
 20
20.11880154079861
 30
0.0
 10
21.57028537326389
 20
20.08513726128472
 30
0.0
 10
21.52875434027778
 20
20.08513726128472
 30
0.0
 10
21.52875434027778
 20
20.08513726128472
 30
0.0
 10
21.19911024305555
 20
20.08513726128472
 30
0.0
 10
21.19911024305555
 20
20.08513726128472
 30
0.0
 10
21.15757921006944
 20
20.08513726128472
 30
0.0
 10
21.12394205729166
 20
20.11880154079861
 30
0.0
 10
21.12394205729166
 20
20.16031901041666
 30
0.0
 10
21.12394205729166
 20
20.16031901041666
 30
0.0
 10
21.12394205729166
 20
20.48996310763889
 30
0.0
 10
21.12394205729166
 20
20.48996310763889
 30
0.0
  0
ENDBLK
  5
99
330
96
100
AcDbEntity
  8
0
100
AcDbBlockEnd
  0
BLOCK
  5
F2
330
F0
100
AcDbEntity
  8
0
100
AcDbBlockBegin
  2
block 4
 70
     0
 71
     0
 10
0.0
 20
0.0
 30
0.0
  3
block 4
  1

  0
POLYLINE
  5
F4
330
F0
100
AcDbEntity
  8
Layer 1
370
     0
100
AcDb2dPolyline
 66
     1
 10
0.0
 20
0.0
 30
0.0
  0
VERTEX
  5
F5
330
F4
100
AcDbEntity
  8
Layer 1
370
     0
100
AcDbVertex
100
AcDb2dVertex
 10
0.3716973198784722
 20
19.11412217881944
 30
0.0
  0
VERTEX
  5
F6
330
F4
100
AcDbEntity
  8
Layer 1
370
     0
100
AcDbVertex
100
AcDb2dVertex
 10
0.3716973198784722
 20
17.10779486762153
 30
0.0
  0
VERTEX
  5
F7
330
F4
100
AcDbEntity
  8
Layer 1
370
     0
100
AcDbVertex
100
AcDb2dVertex
 10
2.377875434027778
 20
17.10779486762153
 30
0.0
  0
VERTEX
  5
F8
330
F4
100
AcDbEntity
  8
Layer 1
370
     0
100
AcDbVertex
100
AcDb2dVertex
 10
2.377943250868055
 20
19.11412217881944
 30
0.0
  0
VERTEX
  5
F9
330
F4
100
AcDbEntity
  8
Layer 1
370
     0
100
AcDbVertex
100
AcDb2dVertex
 10
0.3716973198784722
 20
19.11412217881944
 30
0.0
  0
SEQEND
  5
FA
330
F4
100
AcDbEntity
  8
Layer 1
370
     0
  0
POLYLINE
  5
FB
330
F0
100
AcDbEntity
  8
Layer 1
370
     0
100
AcDb2dPolyline
 66
     1
 10
0.0
 20
0.0
 30
0.0
  0
VERTEX
  5
FC
330
FB
100
AcDbEntity
  8
Layer 1
370
     0
100
AcDbVertex
100
AcDb2dVertex
 10
2.377943250868055
 20
17.10779486762153
 30
0.0
  0
VERTEX
  5
FD
330
FB
100
AcDbEntity
  8
Layer 1
370
     0
100
AcDbVertex
100
AcDb2dVertex
 10
4.384121365017361
 20
17.10779486762153
 30
0.0
  0
VERTEX
  5
FE
330
FB
100
AcDbEntity
  8
Layer 1
370
     0
100
AcDbVertex
100
AcDb2dVertex
 10
4.384202745225695
 20
19.11412217881944
 30
0.0
  0
VERTEX
  5
FF
330
FB
100
AcDbEntity
  8
Layer 1
370
     0
100
AcDbVertex
100
AcDb2dVertex
 10
2.377943250868055
 20
19.11412217881944
 30
0.0
  0
SEQEND
  5
100
330
FB
100
AcDbEntity
  8
Layer 1
370
     0
  0
POLYLINE
  5
101
330
F0
100
AcDbEntity
  8
Layer 1
370
     0
100
AcDb2dPolyline
 66
     1
 10
0.0
 20
0.0
 30
0.0
  0
VERTEX
  5
102
330
101
100
AcDbEntity
  8
Layer 1
370
     0
100
AcDbVertex
100
AcDb2dVertex
 10
4.392550998263888
 20
17.10779486762153
 30
0.0
  0
VERTEX
  5
103
330
101
100
AcDbEntity
  8
Layer 1
370
     0
100
AcDbVertex
100
AcDb2dVertex
 10
6.398729112413194
 20
17.10779486762153
 30
0.0
  0
VERTEX
  5
104
330
101
100
AcDbEntity
  8
Layer 1
370
     0
100
AcDbVertex
100
AcDb2dVertex
 10
6.3988037109375
 20
19.11412217881944
 30
0.0
  0
VERTEX
  5
105
330
101
100
AcDbEntity
  8
Layer 1
370
     0
100
AcDbVertex
100
AcDb2dVertex
 10
4.392550998263888
 20
19.11412217881944
 30
0.0
  0
SEQEND
  5
106
330
101
100
AcDbEntity
  8
Layer 1
370
     0
  0
POLYLINE
  5
107
330
F0
100
AcDbEntity
  8
Layer 1
370
     0
100
AcDb2dPolyline
 66
     1
 10
0.0
 20
0.0
 30
0.0
  0
VERTEX
  5
108
330
107
100
AcDbEntity
  8
Layer 1
370
     0
100
AcDbVertex
100
AcDb2dVertex
 10
6.39044189453125
 20
17.10779486762153
 30
0.0
  0
VERTEX
  5
109
330
107
100
AcDbEntity
  8
Layer 1
370
     0
100
AcDbVertex
100
AcDb2dVertex
 10
8.396620008680555
 20
17.10779486762153
 30
0.0
  0
VERTEX
  5
10A
330
107
100
AcDbEntity
  8
Layer 1
370
     0
100
AcDbVertex
100
AcDb2dVertex
 10
8.396708170572916
 20
19.11412217881944
 30
0.0
  0
VERTEX
  5
10B
330
107
100
AcDbEntity
  8
Layer 1
370
     0
100
AcDbVertex
100
AcDb2dVertex
 10
6.39044189453125
 20
19.11412217881944
 30
0.0
  0
SEQEND
  5
10C
330
107
100
AcDbEntity
  8
Layer 1
370
     0
  0
POLYLINE
  5
10D
330
F0
100
AcDbEntity
  8
Layer 1
370
     0
100
AcDb2dPolyline
 66
     1
 10
0.0
 20
0.0
 30
0.0
  0
VERTEX
  5
10E
330
10D
100
AcDbEntity
  8
Layer 1
370
     0
100
AcDbVertex
100
AcDb2dVertex
 10
8.396708170572916
 20
17.10779486762153
 30
0.0
  0
VERTEX
  5
10F
330
10D
100
AcDbEntity
  8
Layer 1
370
     0
100
AcDbVertex
100
AcDb2dVertex
 10
10.40287950303819
 20
17.10779486762153
 30
0.0
  0
VERTEX
  5
110
330
10D
100
AcDbEntity
  8
Layer 1
370
     0
100
AcDbVertex
100
AcDb2dVertex
 10
10.40294731987847
 20
19.11412217881944
 30
0.0
  0
VERTEX
  5
111
330
10D
100
AcDbEntity
  8
Layer 1
370
     0
100
AcDbVertex
100
AcDb2dVertex
 10
8.396708170572916
 20
19.11412217881944
 30
0.0
  0
SEQEND
  5
112
330
10D
100
AcDbEntity
  8
Layer 1
370
     0
  0
POLYLINE
  5
113
330
F0
100
AcDbEntity
  8
Layer 1
370
     0
100
AcDb2dPolyline
 66
     1
 10
0.0
 20
0.0
 30
0.0
  0
VERTEX
  5
114
330
113
100
AcDbEntity
  8
Layer 1
370
     0
100
AcDbVertex
100
AcDb2dVertex
 10
10.40294731987847
 20
17.10779486762153
 30
0.0
  0
VERTEX
  5
115
330
113
100
AcDbEntity
  8
Layer 1
370
     0
100
AcDbVertex
100
AcDb2dVertex
 10
12.40911865234375
 20
17.10779486762153
 30
0.0
  0
VERTEX
  5
116
330
113
100
AcDbEntity
  8
Layer 1
370
     0
100
AcDbVertex
100
AcDb2dVertex
 10
12.40920003255208
 20
19.11412217881944
 30
0.0
  0
VERTEX
  5
117
330
113
100
AcDbEntity
  8
Layer 1
370
     0
100
AcDbVertex
100
AcDb2dVertex
 10
10.40294731987847
 20
19.11412217881944
 30
0.0
  0
SEQEND
  5
118
330
113
100
AcDbEntity
  8
Layer 1
370
     0
  0
POLYLINE
  5
119
330
F0
100
AcDbEntity
  8
Layer 1
370
     0
100
AcDb2dPolyline
 66
     1
 10
0.0
 20
0.0
 30
0.0
  0
VERTEX
  5
11A
330
119
100
AcDbEntity
  8
Layer 1
370
     0
100
AcDbVertex
100
AcDb2dVertex
 10
0.38775634765625
 20
17.10779486762153
 30
0.0
  0
VERTEX
  5
11B
330
119
100
AcDbEntity
  8
Layer 1
370
     0
100
AcDbVertex
100
AcDb2dVertex
 10
1.374186197916667
 20
15.3992919921875
 30
0.0
  0
VERTEX
  5
11C
330
119
100
AcDbEntity
  8
Layer 1
370
     0
100
AcDbVertex
100
AcDb2dVertex
 10
2.360609266493055
 20
17.10779486762153
 30
0.0
  0
SEQEND
  5
11D
330
119
100
AcDbEntity
  8
Layer 1
370
     0
  0
POLYLINE
  5
11E
330
F0
100
AcDbEntity
  8
Layer 1
370
     0
100
AcDb2dPolyline
 66
     1
 10
0.0
 20
0.0
 30
0.0
  0
VERTEX
  5
11F
330
11E
100
AcDbEntity
  8
Layer 1
370
     0
100
AcDbVertex
100
AcDb2dVertex
 10
1.401848687065972
 20
17.10779486762153
 30
0.0
  0
VERTEX
  5
238
330
11E
100
AcDbEntity
  8
0
100
AcDbVertex
100
AcDb2dVertex
 10
1.401848687065972
 20
17.10779486762153
 30
0.0
  0
SEQEND
  5
120
330
11E
100
AcDbEntity
  8
Layer 1
370
     0
  0
POLYLINE
  5
121
330
F0
100
AcDbEntity
  8
Layer 1
370
     0
100
AcDb2dPolyline
 66
     1
 10
0.0
 20
0.0
 30
0.0
  0
VERTEX
  5
122
330
121
100
AcDbEntity
  8
Layer 1
370
     0
100
AcDbVertex
100
AcDb2dVertex
 10
3.347005208333333
 20
15.39923773871528
 30
0.0
  0
VERTEX
  5
123
330
121
100
AcDbEntity
  8
Layer 1
370
     0
100
AcDbVertex
100
AcDb2dVertex
 10
4.333441840277778
 20
17.10776095920139
 30
0.0
  0
SEQEND
  5
124
330
121
100
AcDbEntity
  8
Layer 1
370
     0
  0
POLYLINE
  5
125
330
F0
100
AcDbEntity
  8
Layer 1
370
     0
100
AcDb2dPolyline
 66
     1
 10
0.0
 20
0.0
 30
0.0
  0
VERTEX
  5
126
330
125
100
AcDbEntity
  8
Layer 1
370
     0
100
AcDbVertex
100
AcDb2dVertex
 10
1.374186197916667
 20
15.3992919921875
 30
0.0
  0
VERTEX
  5
127
330
125
100
AcDbEntity
  8
Layer 1
370
     0
100
AcDbVertex
100
AcDb2dVertex
 10
3.347011990017361
 20
15.39926486545139
 30
0.0
  0
VERTEX
  5
128
330
125
100
AcDbEntity
  8
Layer 1
370
     0
100
AcDbVertex
100
AcDb2dVertex
 10
2.360609266493055
 20
17.10780843098958
 30
0.0
  0
SEQEND
  5
129
330
125
100
AcDbEntity
  8
Layer 1
370
     0
  0
POLYLINE
  5
12A
330
F0
100
AcDbEntity
  8
Layer 1
370
     0
100
AcDb2dPolyline
 66
     1
 10
0.0
 20
0.0
 30
0.0
  0
VERTEX
  5
12B
330
12A
100
AcDbEntity
  8
Layer 1
370
     0
100
AcDbVertex
100
AcDb2dVertex
 10
5.319837782118055
 20
15.39921061197917
 30
0.0
  0
VERTEX
  5
12C
330
12A
100
AcDbEntity
  8
Layer 1
370
     0
100
AcDbVertex
100
AcDb2dVertex
 10
6.306254069010416
 20
17.10773383246528
 30
0.0
  0
SEQEND
  5
12D
330
12A
100
AcDbEntity
  8
Layer 1
370
     0
  0
POLYLINE
  5
12E
330
F0
100
AcDbEntity
  8
Layer 1
370
     0
100
AcDb2dPolyline
 66
     1
 10
0.0
 20
0.0
 30
0.0
  0
VERTEX
  5
12F
330
12E
100
AcDbEntity
  8
Layer 1
370
     0
100
AcDbVertex
100
AcDb2dVertex
 10
3.347011990017361
 20
15.39926486545139
 30
0.0
  0
VERTEX
  5
130
330
12E
100
AcDbEntity
  8
Layer 1
370
     0
100
AcDbVertex
100
AcDb2dVertex
 10
5.319837782118055
 20
15.39922417534722
 30
0.0
  0
VERTEX
  5
131
330
12E
100
AcDbEntity
  8
Layer 1
370
     0
100
AcDbVertex
100
AcDb2dVertex
 10
4.333441840277778
 20
17.10776095920139
 30
0.0
  0
SEQEND
  5
132
330
12E
100
AcDbEntity
  8
Layer 1
370
     0
  0
POLYLINE
  5
133
330
F0
100
AcDbEntity
  8
Layer 1
370
     0
100
AcDb2dPolyline
 66
     1
 10
0.0
 20
0.0
 30
0.0
  0
VERTEX
  5
134
330
133
100
AcDbEntity
  8
Layer 1
370
     0
100
AcDbVertex
100
AcDb2dVertex
 10
7.29266357421875
 20
15.39918348524306
 30
0.0
  0
VERTEX
  5
135
330
133
100
AcDbEntity
  8
Layer 1
370
     0
100
AcDbVertex
100
AcDb2dVertex
 10
8.27908664279514
 20
17.10769992404514
 30
0.0
  0
SEQEND
  5
136
330
133
100
AcDbEntity
  8
Layer 1
370
     0
  0
POLYLINE
  5
137
330
F0
100
AcDbEntity
  8
Layer 1
370
     0
100
AcDb2dPolyline
 66
     1
 10
0.0
 20
0.0
 30
0.0
  0
VERTEX
  5
138
330
137
100
AcDbEntity
  8
Layer 1
370
     0
100
AcDbVertex
100
AcDb2dVertex
 10
5.319837782118055
 20
15.39922417534722
 30
0.0
  0
VERTEX
  5
139
330
137
100
AcDbEntity
  8
Layer 1
370
     0
100
AcDbVertex
100
AcDb2dVertex
 10
7.29266357421875
 20
15.39918348524306
 30
0.0
  0
VERTEX
  5
13A
330
137
100
AcDbEntity
  8
Layer 1
370
     0
100
AcDbVertex
100
AcDb2dVertex
 10
6.306260850694444
 20
17.10773383246528
 30
0.0
  0
SEQEND
  5
13B
330
137
100
AcDbEntity
  8
Layer 1
370
     0
  0
POLYLINE
  5
13C
330
F0
100
AcDbEntity
  8
Layer 1
370
     0
100
AcDb2dPolyline
 66
     1
 10
0.0
 20
0.0
 30
0.0
  0
VERTEX
  5
13D
330
13C
100
AcDbEntity
  8
Layer 1
370
     0
100
AcDbVertex
100
AcDb2dVertex
 10
9.265475802951388
 20
15.39915635850694
 30
0.0
  0
VERTEX
  5
13E
330
13C
100
AcDbEntity
  8
Layer 1
370
     0
100
AcDbVertex
100
AcDb2dVertex
 10
10.25191921657986
 20
17.10767279730903
 30
0.0
  0
SEQEND
  5
13F
330
13C
100
AcDbEntity
  8
Layer 1
370
     0
  0
POLYLINE
  5
140
330
F0
100
AcDbEntity
  8
Layer 1
370
     0
100
AcDb2dPolyline
 66
     1
 10
0.0
 20
0.0
 30
0.0
  0
VERTEX
  5
141
330
140
100
AcDbEntity
  8
Layer 1
370
     0
100
AcDbVertex
100
AcDb2dVertex
 10
7.29266357421875
 20
15.39918348524306
 30
0.0
  0
VERTEX
  5
142
330
140
100
AcDbEntity
  8
Layer 1
370
     0
100
AcDbVertex
100
AcDb2dVertex
 10
9.265475802951388
 20
15.39915635850694
 30
0.0
  0
VERTEX
  5
143
330
140
100
AcDbEntity
  8
Layer 1
370
     0
100
AcDbVertex
100
AcDb2dVertex
 10
8.27908664279514
 20
17.10769992404514
 30
0.0
  0
SEQEND
  5
144
330
140
100
AcDbEntity
  8
Layer 1
370
     0
  0
SPLINE
  5
145
330
F0
100
AcDbEntity
  8
Layer 1
370
     0
100
AcDbSpline
210
0.0
220
0.0
230
1.0
 70
    11
 71
     3
 72
    29
 73
    25
 74
     0
 42
0.0000000001
 43
0.0000000001
 40
0.0
 40
0.0
 40
0.0
 40
0.0
 40
1.0
 40
1.0
 40
1.0
 40
2.0
 40
2.0
 40
2.0
 40
3.0
 40
3.0
 40
3.0
 40
4.0
 40
4.0
 40
4.0
 40
5.0
 40
5.0
 40
5.0
 40
6.0
 40
6.0
 40
6.0
 40
7.0
 40
7.0
 40
7.0
 40
8.0
 40
8.0
 40
8.0
 40
8.0
 10
9.639824761284721
 20
17.94615342881944
 30
0.0
 10
9.639824761284721
 20
17.90462917751736
 30
0.0
 10
9.606174045138888
 20
17.87095811631944
 30
0.0
 10
9.564649793836805
 20
17.87095811631944
 30
0.0
 10
9.564649793836805
 20
17.87095811631944
 30
0.0
 10
9.235005696614582
 20
17.87095811631944
 30
0.0
 10
9.235005696614582
 20
17.87095811631944
 30
0.0
 10
9.1934814453125
 20
17.87095811631944
 30
0.0
 10
9.159823947482638
 20
17.90462917751736
 30
0.0
 10
9.159823947482638
 20
17.94615342881944
 30
0.0
 10
9.159823947482638
 20
17.94615342881944
 30
0.0
 10
9.159823947482638
 20
18.27578396267361
 30
0.0
 10
9.159823947482638
 20
18.27578396267361
 30
0.0
 10
9.159823947482638
 20
18.31730821397569
 30
0.0
 10
9.1934814453125
 20
18.35096571180555
 30
0.0
 10
9.235005696614582
 20
18.35096571180555
 30
0.0
 10
9.235005696614582
 20
18.35096571180555
 30
0.0
 10
9.564649793836805
 20
18.35096571180555
 30
0.0
 10
9.564649793836805
 20
18.35096571180555
 30
0.0
 10
9.606174045138888
 20
18.35096571180555
 30
0.0
 10
9.639824761284721
 20
18.31730821397569
 30
0.0
 10
9.639824761284721
 20
18.27578396267361
 30
0.0
 10
9.639824761284721
 20
18.27578396267361
 30
0.0
 10
9.639824761284721
 20
17.94615342881944
 30
0.0
 10
9.639824761284721
 20
17.94615342881944
 30
0.0
  0
SPLINE
  5
146
330
F0
100
AcDbEntity
  8
Layer 1
370
     0
100
AcDbSpline
210
0.0
220
0.0
230
1.0
 70
    11
 71
     3
 72
    29
 73
    25
 74
     0
 42
0.0000000001
 43
0.0000000001
 40
0.0
 40
0.0
 40
0.0
 40
0.0
 40
1.0
 40
1.0
 40
1.0
 40
2.0
 40
2.0
 40
2.0
 40
3.0
 40
3.0
 40
3.0
 40
4.0
 40
4.0
 40
4.0
 40
5.0
 40
5.0
 40
5.0
 40
6.0
 40
6.0
 40
6.0
 40
7.0
 40
7.0
 40
7.0
 40
8.0
 40
8.0
 40
8.0
 40
8.0
 10
7.633572048611111
 20
17.94613986545139
 30
0.0
 10
7.633572048611111
 20
17.90462239583333
 30
0.0
 10
7.599921332465278
 20
17.87095811631944
 30
0.0
 10
7.558397081163194
 20
17.87095811631944
 30
0.0
 10
7.558397081163194
 20
17.87095811631944
 30
0.0
 10
7.228752983940971
 20
17.87095811631944
 30
0.0
 10
7.228752983940971
 20
17.87095811631944
 30
0.0
 10
7.187228732638888
 20
17.87095811631944
 30
0.0
 10
7.153571234809028
 20
17.90462239583333
 30
0.0
 10
7.153571234809028
 20
17.94613986545139
 30
0.0
 10
7.153571234809028
 20
17.94613986545139
 30
0.0
 10
7.153571234809028
 20
18.27578396267361
 30
0.0
 10
7.153571234809028
 20
18.27578396267361
 30
0.0
 10
7.153571234809028
 20
18.31730143229166
 30
0.0
 10
7.187228732638888
 20
18.35096571180555
 30
0.0
 10
7.228752983940971
 20
18.35096571180555
 30
0.0
 10
7.228752983940971
 20
18.35096571180555
 30
0.0
 10
7.558397081163194
 20
18.35096571180555
 30
0.0
 10
7.558397081163194
 20
18.35096571180555
 30
0.0
 10
7.599921332465278
 20
18.35096571180555
 30
0.0
 10
7.633572048611111
 20
18.31730143229166
 30
0.0
 10
7.633572048611111
 20
18.27578396267361
 30
0.0
 10
7.633572048611111
 20
18.27578396267361
 30
0.0
 10
7.633572048611111
 20
17.94613986545139
 30
0.0
 10
7.633572048611111
 20
17.94613986545139
 30
0.0
  0
SPLINE
  5
147
330
F0
100
AcDbEntity
  8
Layer 1
370
     0
100
AcDbSpline
210
0.0
220
0.0
230
1.0
 70
    11
 71
     3
 72
    29
 73
    25
 74
     0
 42
0.0000000001
 43
0.0000000001
 40
0.0
 40
0.0
 40
0.0
 40
0.0
 40
1.0
 40
1.0
 40
1.0
 40
2.0
 40
2.0
 40
2.0
 40
3.0
 40
3.0
 40
3.0
 40
4.0
 40
4.0
 40
4.0
 40
5.0
 40
5.0
 40
5.0
 40
6.0
 40
6.0
 40
6.0
 40
7.0
 40
7.0
 40
7.0
 40
8.0
 40
8.0
 40
8.0
 40
8.0
 10
5.635674370659722
 20
17.94615342881944
 30
0.0
 10
5.635674370659722
 20
17.90462917751736
 30
0.0
 10
5.602023654513888
 20
17.87095811631944
 30
0.0
 10
5.560499403211805
 20
17.87095811631944
 30
0.0
 10
5.560499403211805
 20
17.87095811631944
 30
0.0
 10
5.230855305989583
 20
17.87095811631944
 30
0.0
 10
5.230855305989583
 20
17.87095811631944
 30
0.0
 10
5.1893310546875
 20
17.87095811631944
 30
0.0
 10
5.155680338541666
 20
17.90462917751736
 30
0.0
 10
5.155680338541666
 20
17.94615342881944
 30
0.0
 10
5.155680338541666
 20
17.94615342881944
 30
0.0
 10
5.155680338541666
 20
18.27578396267361
 30
0.0
 10
5.155680338541666
 20
18.27578396267361
 30
0.0
 10
5.155680338541666
 20
18.31730821397569
 30
0.0
 10
5.1893310546875
 20
18.35096571180555
 30
0.0
 10
5.230855305989583
 20
18.35096571180555
 30
0.0
 10
5.230855305989583
 20
18.35096571180555
 30
0.0
 10
5.560499403211805
 20
18.35096571180555
 30
0.0
 10
5.560499403211805
 20
18.35096571180555
 30
0.0
 10
5.602023654513888
 20
18.35096571180555
 30
0.0
 10
5.635674370659722
 20
18.31730821397569
 30
0.0
 10
5.635674370659722
 20
18.27578396267361
 30
0.0
 10
5.635674370659722
 20
18.27578396267361
 30
0.0
 10
5.635674370659722
 20
17.94615342881944
 30
0.0
 10
5.635674370659722
 20
17.94615342881944
 30
0.0
  0
SPLINE
  5
148
330
F0
100
AcDbEntity
  8
Layer 1
370
     0
100
AcDbSpline
210
0.0
220
0.0
230
1.0
 70
    11
 71
     3
 72
    29
 73
    25
 74
     0
 42
0.0000000001
 43
0.0000000001
 40
0.0
 40
0.0
 40
0.0
 40
0.0
 40
1.0
 40
1.0
 40
1.0
 40
2.0
 40
2.0
 40
2.0
 40
3.0
 40
3.0
 40
3.0
 40
4.0
 40
4.0
 40
4.0
 40
5.0
 40
5.0
 40
5.0
 40
6.0
 40
6.0
 40
6.0
 40
7.0
 40
7.0
 40
7.0
 40
8.0
 40
8.0
 40
8.0
 40
8.0
 10
3.587002224392361
 20
17.94615342881944
 30
0.0
 10
3.587002224392361
 20
17.90462917751736
 30
0.0
 10
3.553351508246528
 20
17.87095811631944
 30
0.0
 10
3.511827256944444
 20
17.87095811631944
 30
0.0
 10
3.511827256944444
 20
17.87095811631944
 30
0.0
 10
3.182183159722222
 20
17.87095811631944
 30
0.0
 10
3.182183159722222
 20
17.87095811631944
 30
0.0
 10
3.140658908420139
 20
17.87095811631944
 30
0.0
 10
3.107008192274305
 20
17.90462917751736
 30
0.0
 10
3.107008192274305
 20
17.94615342881944
 30
0.0
 10
3.107008192274305
 20
17.94615342881944
 30
0.0
 10
3.107008192274305
 20
18.27578396267361
 30
0.0
 10
3.107008192274305
 20
18.27578396267361
 30
0.0
 10
3.107008192274305
 20
18.31730821397569
 30
0.0
 10
3.140658908420139
 20
18.35096571180555
 30
0.0
 10
3.182183159722222
 20
18.35096571180555
 30
0.0
 10
3.182183159722222
 20
18.35096571180555
 30
0.0
 10
3.511827256944444
 20
18.35096571180555
 30
0.0
 10
3.511827256944444
 20
18.35096571180555
 30
0.0
 10
3.553351508246528
 20
18.35096571180555
 30
0.0
 10
3.587002224392361
 20
18.31730821397569
 30
0.0
 10
3.587002224392361
 20
18.27578396267361
 30
0.0
 10
3.587002224392361
 20
18.27578396267361
 30
0.0
 10
3.587002224392361
 20
17.94615342881944
 30
0.0
 10
3.587002224392361
 20
17.94615342881944
 30
0.0
  0
SPLINE
  5
149
330
F0
100
AcDbEntity
  8
Layer 1
370
     0
100
AcDbSpline
210
0.0
220
0.0
230
1.0
 70
    11
 71
     3
 72
    29
 73
    25
 74
     0
 42
0.0000000001
 43
0.0000000001
 40
0.0
 40
0.0
 40
0.0
 40
0.0
 40
1.0
 40
1.0
 40
1.0
 40
2.0
 40
2.0
 40
2.0
 40
3.0
 40
3.0
 40
3.0
 40
4.0
 40
4.0
 40
4.0
 40
5.0
 40
5.0
 40
5.0
 40
6.0
 40
6.0
 40
6.0
 40
7.0
 40
7.0
 40
7.0
 40
8.0
 40
8.0
 40
8.0
 40
8.0
 10
1.614820692274305
 20
17.94613986545139
 30
0.0
 10
1.614820692274305
 20
17.90462239583333
 30
0.0
 10
1.581169976128472
 20
17.87095811631944
 30
0.0
 10
1.539638943142361
 20
17.87095811631944
 30
0.0
 10
1.539638943142361
 20
17.87095811631944
 30
0.0
 10
1.209994845920139
 20
17.87095811631944
 30
0.0
 10
1.209994845920139
 20
17.87095811631944
 30
0.0
 10
1.168477376302083
 20
17.87095811631944
 30
0.0
 10
1.13482666015625
 20
17.90462239583333
 30
0.0
 10
1.13482666015625
 20
17.94613986545139
 30
0.0
 10
1.13482666015625
 20
17.94613986545139
 30
0.0
 10
1.13482666015625
 20
18.27578396267361
 30
0.0
 10
1.13482666015625
 20
18.27578396267361
 30
0.0
 10
1.13482666015625
 20
18.31730143229166
 30
0.0
 10
1.168477376302083
 20
18.35096571180555
 30
0.0
 10
1.209994845920139
 20
18.35096571180555
 30
0.0
 10
1.209994845920139
 20
18.35096571180555
 30
0.0
 10
1.539638943142361
 20
18.35096571180555
 30
0.0
 10
1.539638943142361
 20
18.35096571180555
 30
0.0
 10
1.581169976128472
 20
18.35096571180555
 30
0.0
 10
1.614820692274305
 20
18.31730143229166
 30
0.0
 10
1.614820692274305
 20
18.27578396267361
 30
0.0
 10
1.614820692274305
 20
18.27578396267361
 30
0.0
 10
1.614820692274305
 20
17.94613986545139
 30
0.0
 10
1.614820692274305
 20
17.94613986545139
 30
0.0
  0
ENDBLK
  5
F3
330
F0
100
AcDbEntity
  8
0
100
AcDbBlockEnd
  0
BLOCK
  5
14C
330
14A
100
AcDbEntity
  8
0
100
AcDbBlockBegin
  2
block 5
 70
     0
 71
     0
 10
0.0
 20
0.0
 30
0.0
  3
block 5
  1

  0
POLYLINE
  5
14E
330
14A
100
AcDbEntity
  8
Layer 1
370
     0
100
AcDb2dPolyline
 66
     1
 10
0.0
 20
0.0
 30
0.0
  0
VERTEX
  5
14F
330
14E
100
AcDbEntity
  8
Layer 1
370
     0
100
AcDbVertex
100
AcDb2dVertex
 10
22.554931640625
 20
14.98208279079861
 30
0.0
  0
VERTEX
  5
150
330
14E
100
AcDbEntity
  8
Layer 1
370
     0
100
AcDbVertex
100
AcDb2dVertex
 10
22.554931640625
 20
16.98841010199653
 30
0.0
  0
VERTEX
  5
151
330
14E
100
AcDbEntity
  8
Layer 1
370
     0
100
AcDbVertex
100
AcDb2dVertex
 10
20.54877387152778
 20
16.98841010199653
 30
0.0
  0
VERTEX
  5
152
330
14E
100
AcDbEntity
  8
Layer 1
370
     0
100
AcDbVertex
100
AcDb2dVertex
 10
20.54869249131944
 20
14.98208279079861
 30
0.0
  0
VERTEX
  5
153
330
14E
100
AcDbEntity
  8
Layer 1
370
     0
100
AcDbVertex
100
AcDb2dVertex
 10
22.554931640625
 20
14.98208279079861
 30
0.0
  0
SEQEND
  5
154
330
14E
100
AcDbEntity
  8
Layer 1
370
     0
  0
POLYLINE
  5
155
330
14A
100
AcDbEntity
  8
Layer 1
370
     0
100
AcDb2dPolyline
 66
     1
 10
0.0
 20
0.0
 30
0.0
  0
VERTEX
  5
156
330
155
100
AcDbEntity
  8
Layer 1
370
     0
100
AcDbVertex
100
AcDb2dVertex
 10
20.54869249131944
 20
16.98841010199653
 30
0.0
  0
VERTEX
  5
157
330
155
100
AcDbEntity
  8
Layer 1
370
     0
100
AcDbVertex
100
AcDb2dVertex
 10
18.54251437717014
 20
16.98841010199653
 30
0.0
  0
VERTEX
  5
158
330
155
100
AcDbEntity
  8
Layer 1
370
     0
100
AcDbVertex
100
AcDb2dVertex
 10
18.5424329969618
 20
14.98208279079861
 30
0.0
  0
VERTEX
  5
159
330
155
100
AcDbEntity
  8
Layer 1
370
     0
100
AcDbVertex
100
AcDb2dVertex
 10
20.54869249131944
 20
14.98208279079861
 30
0.0
  0
SEQEND
  5
15A
330
155
100
AcDbEntity
  8
Layer 1
370
     0
  0
POLYLINE
  5
15B
330
14A
100
AcDbEntity
  8
Layer 1
370
     0
100
AcDb2dPolyline
 66
     1
 10
0.0
 20
0.0
 30
0.0
  0
VERTEX
  5
15C
330
15B
100
AcDbEntity
  8
Layer 1
370
     0
100
AcDbVertex
100
AcDb2dVertex
 10
18.53409152560764
 20
16.98841010199653
 30
0.0
  0
VERTEX
  5
15D
330
15B
100
AcDbEntity
  8
Layer 1
370
     0
100
AcDbVertex
100
AcDb2dVertex
 10
16.52791341145833
 20
16.98841010199653
 30
0.0
  0
VERTEX
  5
15E
330
15B
100
AcDbEntity
  8
Layer 1
370
     0
100
AcDbVertex
100
AcDb2dVertex
 10
16.52783881293403
 20
14.98208279079861
 30
0.0
  0
VERTEX
  5
15F
330
15B
100
AcDbEntity
  8
Layer 1
370
     0
100
AcDbVertex
100
AcDb2dVertex
 10
18.53409152560764
 20
14.98208279079861
 30
0.0
  0
SEQEND
  5
160
330
15B
100
AcDbEntity
  8
Layer 1
370
     0
  0
POLYLINE
  5
161
330
14A
100
AcDbEntity
  8
Layer 1
370
     0
100
AcDb2dPolyline
 66
     1
 10
0.0
 20
0.0
 30
0.0
  0
VERTEX
  5
162
330
161
100
AcDbEntity
  8
Layer 1
370
     0
100
AcDbVertex
100
AcDb2dVertex
 10
16.53620062934028
 20
16.98841010199653
 30
0.0
  0
VERTEX
  5
163
330
161
100
AcDbEntity
  8
Layer 1
370
     0
100
AcDbVertex
100
AcDb2dVertex
 10
14.53002251519097
 20
16.98841010199653
 30
0.0
  0
VERTEX
  5
164
330
161
100
AcDbEntity
  8
Layer 1
370
     0
100
AcDbVertex
100
AcDb2dVertex
 10
14.52993435329861
 20
14.98208279079861
 30
0.0
  0
VERTEX
  5
165
330
161
100
AcDbEntity
  8
Layer 1
370
     0
100
AcDbVertex
100
AcDb2dVertex
 10
16.53620062934028
 20
14.98208279079861
 30
0.0
  0
SEQEND
  5
166
330
161
100
AcDbEntity
  8
Layer 1
370
     0
  0
POLYLINE
  5
167
330
14A
100
AcDbEntity
  8
Layer 1
370
     0
100
AcDb2dPolyline
 66
     1
 10
0.0
 20
0.0
 30
0.0
  0
VERTEX
  5
168
330
167
100
AcDbEntity
  8
Layer 1
370
     0
100
AcDbVertex
100
AcDb2dVertex
 10
14.52993435329861
 20
16.98841010199653
 30
0.0
  0
VERTEX
  5
169
330
167
100
AcDbEntity
  8
Layer 1
370
     0
100
AcDbVertex
100
AcDb2dVertex
 10
12.52376302083333
 20
16.98841010199653
 30
0.0
  0
VERTEX
  5
16A
330
167
100
AcDbEntity
  8
Layer 1
370
     0
100
AcDbVertex
100
AcDb2dVertex
 10
12.52369520399306
 20
14.98208279079861
 30
0.0
  0
VERTEX
  5
16B
330
167
100
AcDbEntity
  8
Layer 1
370
     0
100
AcDbVertex
100
AcDb2dVertex
 10
14.52993435329861
 20
14.98208279079861
 30
0.0
  0
SEQEND
  5
16C
330
167
100
AcDbEntity
  8
Layer 1
370
     0
  0
POLYLINE
  5
16D
330
14A
100
AcDbEntity
  8
Layer 1
370
     0
100
AcDb2dPolyline
 66
     1
 10
0.0
 20
0.0
 30
0.0
  0
VERTEX
  5
16E
330
16D
100
AcDbEntity
  8
Layer 1
370
     0
100
AcDbVertex
100
AcDb2dVertex
 10
12.52369520399306
 20
16.98841010199653
 30
0.0
  0
VERTEX
  5
16F
330
16D
100
AcDbEntity
  8
Layer 1
370
     0
100
AcDbVertex
100
AcDb2dVertex
 10
10.51752387152778
 20
16.98841010199653
 30
0.0
  0
VERTEX
  5
170
330
16D
100
AcDbEntity
  8
Layer 1
370
     0
100
AcDbVertex
100
AcDb2dVertex
 10
10.51744249131944
 20
14.98208279079861
 30
0.0
  0
VERTEX
  5
171
330
16D
100
AcDbEntity
  8
Layer 1
370
     0
100
AcDbVertex
100
AcDb2dVertex
 10
12.52369520399306
 20
14.98208279079861
 30
0.0
  0
SEQEND
  5
172
330
16D
100
AcDbEntity
  8
Layer 1
370
     0
  0
POLYLINE
  5
173
330
14A
100
AcDbEntity
  8
Layer 1
370
     0
100
AcDb2dPolyline
 66
     1
 10
0.0
 20
0.0
 30
0.0
  0
VERTEX
  5
174
330
173
100
AcDbEntity
  8
Layer 1
370
     0
100
AcDbVertex
100
AcDb2dVertex
 10
22.53887261284722
 20
16.98841010199653
 30
0.0
  0
VERTEX
  5
175
330
173
100
AcDbEntity
  8
Layer 1
370
     0
100
AcDbVertex
100
AcDb2dVertex
 10
21.55246310763889
 20
18.69691297743055
 30
0.0
  0
VERTEX
  5
176
330
173
100
AcDbEntity
  8
Layer 1
370
     0
100
AcDbVertex
100
AcDb2dVertex
 10
20.56602647569444
 20
16.98841010199653
 30
0.0
  0
SEQEND
  5
177
330
173
100
AcDbEntity
  8
Layer 1
370
     0
  0
POLYLINE
  5
178
330
14A
100
AcDbEntity
  8
Layer 1
370
     0
100
AcDb2dPolyline
 66
     1
 10
0.0
 20
0.0
 30
0.0
  0
VERTEX
  5
179
330
178
100
AcDbEntity
  8
Layer 1
370
     0
100
AcDbVertex
100
AcDb2dVertex
 10
21.52479383680555
 20
16.98841010199653
 30
0.0
  0
VERTEX
  5
239
330
178
100
AcDbEntity
  8
0
100
AcDbVertex
100
AcDb2dVertex
 10
21.52479383680555
 20
16.98841010199653
 30
0.0
  0
SEQEND
  5
17A
330
178
100
AcDbEntity
  8
Layer 1
370
     0
  0
POLYLINE
  5
17B
330
14A
100
AcDbEntity
  8
Layer 1
370
     0
100
AcDb2dPolyline
 66
     1
 10
0.0
 20
0.0
 30
0.0
  0
VERTEX
  5
17C
330
17B
100
AcDbEntity
  8
Layer 1
370
     0
100
AcDbVertex
100
AcDb2dVertex
 10
19.57964409722222
 20
18.69696044921875
 30
0.0
  0
VERTEX
  5
17D
330
17B
100
AcDbEntity
  8
Layer 1
370
     0
100
AcDbVertex
100
AcDb2dVertex
 10
18.59320746527778
 20
16.98844401041666
 30
0.0
  0
SEQEND
  5
17E
330
17B
100
AcDbEntity
  8
Layer 1
370
     0
  0
POLYLINE
  5
17F
330
14A
100
AcDbEntity
  8
Layer 1
370
     0
100
AcDb2dPolyline
 66
     1
 10
0.0
 20
0.0
 30
0.0
  0
VERTEX
  5
180
330
17F
100
AcDbEntity
  8
Layer 1
370
     0
100
AcDbVertex
100
AcDb2dVertex
 10
21.55246310763889
 20
18.69691297743055
 30
0.0
  0
VERTEX
  5
181
330
17F
100
AcDbEntity
  8
Layer 1
370
     0
100
AcDbVertex
100
AcDb2dVertex
 10
19.57961697048611
 20
18.69694688585069
 30
0.0
  0
VERTEX
  5
182
330
17F
100
AcDbEntity
  8
Layer 1
370
     0
100
AcDbVertex
100
AcDb2dVertex
 10
20.56602647569444
 20
16.98839653862847
 30
0.0
  0
SEQEND
  5
183
330
17F
100
AcDbEntity
  8
Layer 1
370
     0
  0
POLYLINE
  5
184
330
14A
100
AcDbEntity
  8
Layer 1
370
     0
100
AcDb2dPolyline
 66
     1
 10
0.0
 20
0.0
 30
0.0
  0
VERTEX
  5
185
330
184
100
AcDbEntity
  8
Layer 1
370
     0
100
AcDbVertex
100
AcDb2dVertex
 10
17.60680474175347
 20
18.69698757595486
 30
0.0
  0
VERTEX
  5
186
330
184
100
AcDbEntity
  8
Layer 1
370
     0
100
AcDbVertex
100
AcDb2dVertex
 10
16.62038845486111
 20
16.98847113715278
 30
0.0
  0
SEQEND
  5
187
330
184
100
AcDbEntity
  8
Layer 1
370
     0
  0
POLYLINE
  5
188
330
14A
100
AcDbEntity
  8
Layer 1
370
     0
100
AcDb2dPolyline
 66
     1
 10
0.0
 20
0.0
 30
0.0
  0
VERTEX
  5
189
330
188
100
AcDbEntity
  8
Layer 1
370
     0
100
AcDbVertex
100
AcDb2dVertex
 10
19.57961697048611
 20
18.69694688585069
 30
0.0
  0
VERTEX
  5
18A
330
188
100
AcDbEntity
  8
Layer 1
370
     0
100
AcDbVertex
100
AcDb2dVertex
 10
17.60680474175347
 20
18.69698079427083
 30
0.0
  0
VERTEX
  5
18B
330
188
100
AcDbEntity
  8
Layer 1
370
     0
100
AcDbVertex
100
AcDb2dVertex
 10
18.59320746527778
 20
16.98844401041666
 30
0.0
  0
SEQEND
  5
18C
330
188
100
AcDbEntity
  8
Layer 1
370
     0
  0
POLYLINE
  5
18D
330
14A
100
AcDbEntity
  8
Layer 1
370
     0
100
AcDb2dPolyline
 66
     1
 10
0.0
 20
0.0
 30
0.0
  0
VERTEX
  5
18E
330
18D
100
AcDbEntity
  8
Layer 1
370
     0
100
AcDbVertex
100
AcDb2dVertex
 10
15.63397894965278
 20
18.697021484375
 30
0.0
  0
VERTEX
  5
18F
330
18D
100
AcDbEntity
  8
Layer 1
370
     0
100
AcDbVertex
100
AcDb2dVertex
 10
14.64755588107639
 20
16.98850504557291
 30
0.0
  0
SEQEND
  5
190
330
18D
100
AcDbEntity
  8
Layer 1
370
     0
  0
POLYLINE
  5
191
330
14A
100
AcDbEntity
  8
Layer 1
370
     0
100
AcDb2dPolyline
 66
     1
 10
0.0
 20
0.0
 30
0.0
  0
VERTEX
  5
192
330
191
100
AcDbEntity
  8
Layer 1
370
     0
100
AcDbVertex
100
AcDb2dVertex
 10
17.60680474175347
 20
18.69698079427083
 30
0.0
  0
VERTEX
  5
193
330
191
100
AcDbEntity
  8
Layer 1
370
     0
100
AcDbVertex
100
AcDb2dVertex
 10
15.63397894965278
 20
18.697021484375
 30
0.0
  0
VERTEX
  5
194
330
191
100
AcDbEntity
  8
Layer 1
370
     0
100
AcDbVertex
100
AcDb2dVertex
 10
16.62038167317708
 20
16.98847113715278
 30
0.0
  0
SEQEND
  5
195
330
191
100
AcDbEntity
  8
Layer 1
370
     0
  0
POLYLINE
  5
196
330
14A
100
AcDbEntity
  8
Layer 1
370
     0
100
AcDb2dPolyline
 66
     1
 10
0.0
 20
0.0
 30
0.0
  0
VERTEX
  5
197
330
196
100
AcDbEntity
  8
Layer 1
370
     0
100
AcDbVertex
100
AcDb2dVertex
 10
13.66116672092014
 20
18.69705539279514
 30
0.0
  0
VERTEX
  5
198
330
196
100
AcDbEntity
  8
Layer 1
370
     0
100
AcDbVertex
100
AcDb2dVertex
 10
12.67472330729167
 20
16.98853217230903
 30
0.0
  0
SEQEND
  5
199
330
196
100
AcDbEntity
  8
Layer 1
370
     0
  0
POLYLINE
  5
19A
330
14A
100
AcDbEntity
  8
Layer 1
370
     0
100
AcDb2dPolyline
 66
     1
 10
0.0
 20
0.0
 30
0.0
  0
VERTEX
  5
19B
330
19A
100
AcDbEntity
  8
Layer 1
370
     0
100
AcDbVertex
100
AcDb2dVertex
 10
15.63397894965278
 20
18.697021484375
 30
0.0
  0
VERTEX
  5
19C
330
19A
100
AcDbEntity
  8
Layer 1
370
     0
100
AcDbVertex
100
AcDb2dVertex
 10
13.66116672092014
 20
18.69705539279514
 30
0.0
  0
VERTEX
  5
19D
330
19A
100
AcDbEntity
  8
Layer 1
370
     0
100
AcDbVertex
100
AcDb2dVertex
 10
14.64755588107639
 20
16.98850504557291
 30
0.0
  0
SEQEND
  5
19E
330
19A
100
AcDbEntity
  8
Layer 1
370
     0
  0
SPLINE
  5
19F
330
14A
100
AcDbEntity
  8
Layer 1
370
     0
100
AcDbSpline
210
0.0
220
0.0
230
1.0
 70
    11
 71
     3
 72
    29
 73
    25
 74
     0
 42
0.0000000001
 43
0.0000000001
 40
0.0
 40
0.0
 40
0.0
 40
0.0
 40
1.0
 40
1.0
 40
1.0
 40
2.0
 40
2.0
 40
2.0
 40
3.0
 40
3.0
 40
3.0
 40
4.0
 40
4.0
 40
4.0
 40
5.0
 40
5.0
 40
5.0
 40
6.0
 40
6.0
 40
6.0
 40
7.0
 40
7.0
 40
7.0
 40
8.0
 40
8.0
 40
8.0
 40
8.0
 10
13.28681776258681
 20
16.15005154079861
 30
0.0
 10
13.28681776258681
 20
16.19157579210069
 30
0.0
 10
13.32046847873264
 20
16.22524685329861
 30
0.0
 10
13.36199273003472
 20
16.22524685329861
 30
0.0
 10
13.36199273003472
 20
16.22524685329861
 30
0.0
 10
13.69163682725694
 20
16.22524685329861
 30
0.0
 10
13.69163682725694
 20
16.22524685329861
 30
0.0
 10
13.73316107855903
 20
16.22524685329861
 30
0.0
 10
13.76681857638889
 20
16.19157579210069
 30
0.0
 10
13.76681857638889
 20
16.15005154079861
 30
0.0
 10
13.76681857638889
 20
16.15005154079861
 30
0.0
 10
13.76681857638889
 20
15.82042100694444
 30
0.0
 10
13.76681857638889
 20
15.82042100694444
 30
0.0
 10
13.76681857638889
 20
15.77889675564236
 30
0.0
 10
13.73316107855903
 20
15.7452392578125
 30
0.0
 10
13.69163682725694
 20
15.7452392578125
 30
0.0
 10
13.69163682725694
 20
15.7452392578125
 30
0.0
 10
13.36199273003472
 20
15.7452392578125
 30
0.0
 10
13.36199273003472
 20
15.7452392578125
 30
0.0
 10
13.32046847873264
 20
15.7452392578125
 30
0.0
 10
13.28681776258681
 20
15.77889675564236
 30
0.0
 10
13.28681776258681
 20
15.82042100694444
 30
0.0
 10
13.28681776258681
 20
15.82042100694444
 30
0.0
 10
13.28681776258681
 20
16.15005154079861
 30
0.0
 10
13.28681776258681
 20
16.15005154079861
 30
0.0
  0
SPLINE
  5
1A0
330
14A
100
AcDbEntity
  8
Layer 1
370
     0
100
AcDbSpline
210
0.0
220
0.0
230
1.0
 70
    11
 71
     3
 72
    29
 73
    25
 74
     0
 42
0.0000000001
 43
0.0000000001
 40
0.0
 40
0.0
 40
0.0
 40
0.0
 40
1.0
 40
1.0
 40
1.0
 40
2.0
 40
2.0
 40
2.0
 40
3.0
 40
3.0
 40
3.0
 40
4.0
 40
4.0
 40
4.0
 40
5.0
 40
5.0
 40
5.0
 40
6.0
 40
6.0
 40
6.0
 40
7.0
 40
7.0
 40
7.0
 40
8.0
 40
8.0
 40
8.0
 40
8.0
 10
15.29307047526042
 20
16.15006510416666
 30
0.0
 10
15.29307047526042
 20
16.19158257378472
 30
0.0
 10
15.32672119140625
 20
16.22524685329861
 30
0.0
 10
15.36824544270833
 20
16.22524685329861
 30
0.0
 10
15.36824544270833
 20
16.22524685329861
 30
0.0
 10
15.69788953993056
 20
16.22524685329861
 30
0.0
 10
15.69788953993056
 20
16.22524685329861
 30
0.0
 10
15.73941379123264
 20
16.22524685329861
 30
0.0
 10
15.7730712890625
 20
16.19158257378472
 30
0.0
 10
15.7730712890625
 20
16.15006510416666
 30
0.0
 10
15.7730712890625
 20
16.15006510416666
 30
0.0
 10
15.7730712890625
 20
15.82042100694444
 30
0.0
 10
15.7730712890625
 20
15.82042100694444
 30
0.0
 10
15.7730712890625
 20
15.77890353732639
 30
0.0
 10
15.73941379123264
 20
15.7452392578125
 30
0.0
 10
15.69788953993056
 20
15.7452392578125
 30
0.0
 10
15.69788953993056
 20
15.7452392578125
 30
0.0
 10
15.36824544270833
 20
15.7452392578125
 30
0.0
 10
15.36824544270833
 20
15.7452392578125
 30
0.0
 10
15.32672119140625
 20
15.7452392578125
 30
0.0
 10
15.29307047526042
 20
15.77890353732639
 30
0.0
 10
15.29307047526042
 20
15.82042100694444
 30
0.0
 10
15.29307047526042
 20
15.82042100694444
 30
0.0
 10
15.29307047526042
 20
16.15006510416666
 30
0.0
 10
15.29307047526042
 20
16.15006510416666
 30
0.0
  0
SPLINE
  5
1A1
330
14A
100
AcDbEntity
  8
Layer 1
370
     0
100
AcDbSpline
210
0.0
220
0.0
230
1.0
 70
    11
 71
     3
 72
    29
 73
    25
 74
     0
 42
0.0000000001
 43
0.0000000001
 40
0.0
 40
0.0
 40
0.0
 40
0.0
 40
1.0
 40
1.0
 40
1.0
 40
2.0
 40
2.0
 40
2.0
 40
3.0
 40
3.0
 40
3.0
 40
4.0
 40
4.0
 40
4.0
 40
5.0
 40
5.0
 40
5.0
 40
6.0
 40
6.0
 40
6.0
 40
7.0
 40
7.0
 40
7.0
 40
8.0
 40
8.0
 40
8.0
 40
8.0
 10
17.2909681532118
 20
16.15005154079861
 30
0.0
 10
17.2909681532118
 20
16.19157579210069
 30
0.0
 10
17.32461886935764
 20
16.22524685329861
 30
0.0
 10
17.36613633897569
 20
16.22524685329861
 30
0.0
 10
17.36613633897569
 20
16.22524685329861
 30
0.0
 10
17.69578043619791
 20
16.22524685329861
 30
0.0
 10
17.69578043619791
 20
16.22524685329861
 30
0.0
 10
17.73731146918403
 20
16.22524685329861
 30
0.0
 10
17.77096218532986
 20
16.19157579210069
 30
0.0
 10
17.77096218532986
 20
16.15005154079861
 30
0.0
 10
17.77096218532986
 20
16.15005154079861
 30
0.0
 10
17.77096218532986
 20
15.82042100694444
 30
0.0
 10
17.77096218532986
 20
15.82042100694444
 30
0.0
 10
17.77096218532986
 20
15.77889675564236
 30
0.0
 10
17.73731146918403
 20
15.7452392578125
 30
0.0
 10
17.69578043619791
 20
15.7452392578125
 30
0.0
 10
17.69578043619791
 20
15.7452392578125
 30
0.0
 10
17.36613633897569
 20
15.7452392578125
 30
0.0
 10
17.36613633897569
 20
15.7452392578125
 30
0.0
 10
17.32461886935764
 20
15.7452392578125
 30
0.0
 10
17.2909681532118
 20
15.77889675564236
 30
0.0
 10
17.2909681532118
 20
15.82042100694444
 30
0.0
 10
17.2909681532118
 20
15.82042100694444
 30
0.0
 10
17.2909681532118
 20
16.15005154079861
 30
0.0
 10
17.2909681532118
 20
16.15005154079861
 30
0.0
  0
SPLINE
  5
1A2
330
14A
100
AcDbEntity
  8
Layer 1
370
     0
100
AcDbSpline
210
0.0
220
0.0
230
1.0
 70
    11
 71
     3
 72
    29
 73
    25
 74
     0
 42
0.0000000001
 43
0.0000000001
 40
0.0
 40
0.0
 40
0.0
 40
0.0
 40
1.0
 40
1.0
 40
1.0
 40
2.0
 40
2.0
 40
2.0
 40
3.0
 40
3.0
 40
3.0
 40
4.0
 40
4.0
 40
4.0
 40
5.0
 40
5.0
 40
5.0
 40
6.0
 40
6.0
 40
6.0
 40
7.0
 40
7.0
 40
7.0
 40
8.0
 40
8.0
 40
8.0
 40
8.0
 10
19.33962673611111
 20
16.15005154079861
 30
0.0
 10
19.33962673611111
 20
16.19157579210069
 30
0.0
 10
19.373291015625
 20
16.22524685329861
 30
0.0
 10
19.41482204861111
 20
16.22524685329861
 30
0.0
 10
19.41482204861111
 20
16.22524685329861
 30
0.0
 10
19.74446614583333
 20
16.22524685329861
 30
0.0
 10
19.74446614583333
 20
16.22524685329861
 30
0.0
 10
19.78597005208333
 20
16.22524685329861
 30
0.0
 10
19.81963433159722
 20
16.19157579210069
 30
0.0
 10
19.81963433159722
 20
16.15005154079861
 30
0.0
 10
19.81963433159722
 20
16.15005154079861
 30
0.0
 10
19.81963433159722
 20
15.82042100694444
 30
0.0
 10
19.81963433159722
 20
15.82042100694444
 30
0.0
 10
19.81963433159722
 20
15.77889675564236
 30
0.0
 10
19.78597005208333
 20
15.7452392578125
 30
0.0
 10
19.74446614583333
 20
15.7452392578125
 30
0.0
 10
19.74446614583333
 20
15.7452392578125
 30
0.0
 10
19.41482204861111
 20
15.7452392578125
 30
0.0
 10
19.41482204861111
 20
15.7452392578125
 30
0.0
 10
19.373291015625
 20
15.7452392578125
 30
0.0
 10
19.33962673611111
 20
15.77889675564236
 30
0.0
 10
19.33962673611111
 20
15.82042100694444
 30
0.0
 10
19.33962673611111
 20
15.82042100694444
 30
0.0
 10
19.33962673611111
 20
16.15005154079861
 30
0.0
 10
19.33962673611111
 20
16.15005154079861
 30
0.0
  0
SPLINE
  5
1A3
330
14A
100
AcDbEntity
  8
Layer 1
370
     0
100
AcDbSpline
210
0.0
220
0.0
230
1.0
 70
    11
 71
     3
 72
    29
 73
    25
 74
     0
 42
0.0000000001
 43
0.0000000001
 40
0.0
 40
0.0
 40
0.0
 40
0.0
 40
1.0
 40
1.0
 40
1.0
 40
2.0
 40
2.0
 40
2.0
 40
3.0
 40
3.0
 40
3.0
 40
4.0
 40
4.0
 40
4.0
 40
5.0
 40
5.0
 40
5.0
 40
6.0
 40
6.0
 40
6.0
 40
7.0
 40
7.0
 40
7.0
 40
8.0
 40
8.0
 40
8.0
 40
8.0
 10
21.31182183159722
 20
16.15006510416666
 30
0.0
 10
21.31182183159722
 20
16.19158257378472
 30
0.0
 10
21.345458984375
 20
16.22524685329861
 30
0.0
 10
21.38699001736111
 20
16.22524685329861
 30
0.0
 10
21.38699001736111
 20
16.22524685329861
 30
0.0
 10
21.71663411458333
 20
16.22524685329861
 30
0.0
 10
21.71663411458333
 20
16.22524685329861
 30
0.0
 10
21.75816514756944
 20
16.22524685329861
 30
0.0
 10
21.79180230034722
 20
16.19158257378472
 30
0.0
 10
21.79180230034722
 20
16.15006510416666
 30
0.0
 10
21.79180230034722
 20
16.15006510416666
 30
0.0
 10
21.79180230034722
 20
15.82042100694444
 30
0.0
 10
21.79180230034722
 20
15.82042100694444
 30
0.0
 10
21.79180230034722
 20
15.77890353732639
 30
0.0
 10
21.75816514756944
 20
15.7452392578125
 30
0.0
 10
21.71663411458333
 20
15.7452392578125
 30
0.0
 10
21.71663411458333
 20
15.7452392578125
 30
0.0
 10
21.38699001736111
 20
15.7452392578125
 30
0.0
 10
21.38699001736111
 20
15.7452392578125
 30
0.0
 10
21.345458984375
 20
15.7452392578125
 30
0.0
 10
21.31182183159722
 20
15.77890353732639
 30
0.0
 10
21.31182183159722
 20
15.82042100694444
 30
0.0
 10
21.31182183159722
 20
15.82042100694444
 30
0.0
 10
21.31182183159722
 20
16.15006510416666
 30
0.0
 10
21.31182183159722
 20
16.15006510416666
 30
0.0
  0
ENDBLK
  5
14D
330
14A
100
AcDbEntity
  8
0
100
AcDbBlockEnd
  0
BLOCK
  5
1A6
330
1A4
100
AcDbEntity
  8
0
100
AcDbBlockBegin
  2
block 6
 70
     0
 71
     0
 10
0.0
 20
0.0
 30
0.0
  3
block 6
  1

  0
POLYLINE
  5
1A8
330
1A4
100
AcDbEntity
  8
Layer 1
370
     0
100
AcDb2dPolyline
 66
     1
 10
0.0
 20
0.0
 30
0.0
  0
VERTEX
  5
1A9
330
1A8
100
AcDbEntity
  8
Layer 1
370
     0
100
AcDbVertex
100
AcDb2dVertex
 10
1.372219509548611
 20
11.56028917100694
 30
0.0
  0
VERTEX
  5
1AA
330
1A8
100
AcDbEntity
  8
Layer 1
370
     0
100
AcDbVertex
100
AcDb2dVertex
 10
0.38775634765625
 20
12.54475911458333
 30
0.0
  0
VERTEX
  5
1AB
330
1A8
100
AcDbEntity
  8
Layer 1
370
     0
100
AcDbVertex
100
AcDb2dVertex
 10
0.38775634765625
 20
13.93704562717014
 30
0.0
  0
VERTEX
  5
1AC
330
1A8
100
AcDbEntity
  8
Layer 1
370
     0
100
AcDbVertex
100
AcDb2dVertex
 10
1.372219509548611
 20
14.92149522569444
 30
0.0
  0
VERTEX
  5
1AD
330
1A8
100
AcDbEntity
  8
Layer 1
370
     0
100
AcDbVertex
100
AcDb2dVertex
 10
2.764492458767361
 20
14.92149522569444
 30
0.0
  0
VERTEX
  5
1AE
330
1A8
100
AcDbEntity
  8
Layer 1
370
     0
100
AcDbVertex
100
AcDb2dVertex
 10
3.748969184027778
 20
13.93704562717014
 30
0.0
  0
VERTEX
  5
1AF
330
1A8
100
AcDbEntity
  8
Layer 1
370
     0
100
AcDbVertex
100
AcDb2dVertex
 10
3.748969184027778
 20
12.54475911458333
 30
0.0
  0
VERTEX
  5
1B0
330
1A8
100
AcDbEntity
  8
Layer 1
370
     0
100
AcDbVertex
100
AcDb2dVertex
 10
2.764492458767361
 20
11.56028917100694
 30
0.0
  0
VERTEX
  5
1B1
330
1A8
100
AcDbEntity
  8
Layer 1
370
     0
100
AcDbVertex
100
AcDb2dVertex
 10
1.372219509548611
 20
11.56028917100694
 30
0.0
  0
SEQEND
  5
1B2
330
1A8
100
AcDbEntity
  8
Layer 1
370
     0
  0
INSERT
  5
1B4
330
1A4
100
AcDbEntity
  8
Layer 1
100
AcDbBlockReference
  2
block 7
 10
0.0
 20
0.0
 30
0.0
  0
POLYLINE
  5
1EF
330
1A4
100
AcDbEntity
  8
Layer 1
370
     0
100
AcDb2dPolyline
 66
     1
 10
0.0
 20
0.0
 30
0.0
  0
VERTEX
  5
1F0
330
1EF
100
AcDbEntity
  8
Layer 1
370
     0
100
AcDbVertex
100
AcDb2dVertex
 10
5.016994900173611
 20
11.671875
 30
0.0
  0
VERTEX
  5
1F1
330
1EF
100
AcDbEntity
  8
Layer 1
370
     0
100
AcDbVertex
100
AcDb2dVertex
 10
4.032524956597222
 20
12.65633816189236
 30
0.0
  0
VERTEX
  5
1F2
330
1EF
100
AcDbEntity
  8
Layer 1
370
     0
100
AcDbVertex
100
AcDb2dVertex
 10
4.032524956597222
 20
14.04862467447917
 30
0.0
  0
VERTEX
  5
1F3
330
1EF
100
AcDbEntity
  8
Layer 1
370
     0
100
AcDbVertex
100
AcDb2dVertex
 10
5.016994900173611
 20
15.0330810546875
 30
0.0
  0
VERTEX
  5
1F4
330
1EF
100
AcDbEntity
  8
Layer 1
370
     0
100
AcDbVertex
100
AcDb2dVertex
 10
6.409261067708333
 20
15.0330810546875
 30
0.0
  0
VERTEX
  5
1F5
330
1EF
100
AcDbEntity
  8
Layer 1
370
     0
100
AcDbVertex
100
AcDb2dVertex
 10
7.393744574652778
 20
14.04862467447917
 30
0.0
  0
VERTEX
  5
1F6
330
1EF
100
AcDbEntity
  8
Layer 1
370
     0
100
AcDbVertex
100
AcDb2dVertex
 10
7.393744574652778
 20
12.65633816189236
 30
0.0
  0
VERTEX
  5
1F7
330
1EF
100
AcDbEntity
  8
Layer 1
370
     0
100
AcDbVertex
100
AcDb2dVertex
 10
6.409261067708333
 20
11.671875
 30
0.0
  0
VERTEX
  5
1F8
330
1EF
100
AcDbEntity
  8
Layer 1
370
     0
100
AcDbVertex
100
AcDb2dVertex
 10
5.016994900173611
 20
11.671875
 30
0.0
  0
SEQEND
  5
1F9
330
1EF
100
AcDbEntity
  8
Layer 1
370
     0
  0
INSERT
  5
1FB
330
1A4
100
AcDbEntity
  8
Layer 1
100
AcDbBlockReference
  2
block 8
 10
0.0
 20
0.0
 30
0.0
  0
ENDBLK
  5
1A7
330
1A4
100
AcDbEntity
  8
0
100
AcDbBlockEnd
  0
BLOCK
  5
1B5
330
1B3
100
AcDbEntity
  8
0
100
AcDbBlockBegin
  2
block 7
 70
     0
 71
     0
 10
0.0
 20
0.0
 30
0.0
  3
block 7
  1

  0
POLYLINE
  5
1B7
330
1B3
100
AcDbEntity
  8
Layer 1
370
     0
100
AcDb2dPolyline
 66
     1
 10
0.0
 20
0.0
 30
0.0
  0
VERTEX
  5
1B8
330
1B7
100
AcDbEntity
  8
Layer 1
370
     0
100
AcDbVertex
100
AcDb2dVertex
 10
8.266594780815971
 20
13.24089219835069
 30
0.0
  0
VERTEX
  5
1B9
330
1B7
100
AcDbEntity
  8
Layer 1
370
     0
100
AcDbVertex
100
AcDb2dVertex
 10
8.266594780815971
 20
14.61684841579861
 30
0.0
  0
VERTEX
  5
1BA
330
1B7
100
AcDbEntity
  8
Layer 1
370
     0
100
AcDbVertex
100
AcDb2dVertex
 10
7.844563802083333
 20
14.61684841579861
 30
0.0
  0
VERTEX
  5
1BB
330
1B7
100
AcDbEntity
  8
Layer 1
370
     0
100
AcDbVertex
100
AcDb2dVertex
 10
7.844563802083333
 20
13.24089219835069
 30
0.0
  0
VERTEX
  5
1BC
330
1B7
100
AcDbEntity
  8
Layer 1
370
     0
100
AcDbVertex
100
AcDb2dVertex
 10
8.266594780815971
 20
13.24089219835069
 30
0.0
  0
SEQEND
  5
1BD
330
1B7
100
AcDbEntity
  8
Layer 1
370
     0
  0
POLYLINE
  5
1BE
330
1B3
100
AcDbEntity
  8
Layer 1
370
     0
100
AcDb2dPolyline
 66
     1
 10
0.0
 20
0.0
 30
0.0
  0
VERTEX
  5
1BF
330
1BE
100
AcDbEntity
  8
Layer 1
370
     0
100
AcDbVertex
100
AcDb2dVertex
 10
11.56907145182292
 20
13.24089219835069
 30
0.0
  0
VERTEX
  5
1C0
330
1BE
100
AcDbEntity
  8
Layer 1
370
     0
100
AcDbVertex
100
AcDb2dVertex
 10
11.56907145182292
 20
14.61684841579861
 30
0.0
  0
VERTEX
  5
1C1
330
1BE
100
AcDbEntity
  8
Layer 1
370
     0
100
AcDbVertex
100
AcDb2dVertex
 10
11.14703369140625
 20
14.61684841579861
 30
0.0
  0
VERTEX
  5
1C2
330
1BE
100
AcDbEntity
  8
Layer 1
370
     0
100
AcDbVertex
100
AcDb2dVertex
 10
11.14703369140625
 20
13.24089219835069
 30
0.0
  0
VERTEX
  5
1C3
330
1BE
100
AcDbEntity
  8
Layer 1
370
     0
100
AcDbVertex
100
AcDb2dVertex
 10
11.56907145182292
 20
13.24089219835069
 30
0.0
  0
SEQEND
  5
1C4
330
1BE
100
AcDbEntity
  8
Layer 1
370
     0
  0
POLYLINE
  5
1C5
330
1B3
100
AcDbEntity
  8
Layer 1
370
     0
100
AcDb2dPolyline
 66
     1
 10
0.0
 20
0.0
 30
0.0
  0
VERTEX
  5
1C6
330
1C5
100
AcDbEntity
  8
Layer 1
370
     0
100
AcDbVertex
100
AcDb2dVertex
 10
10.24807400173611
 20
13.24089219835069
 30
0.0
  0
VERTEX
  5
1C7
330
1C5
100
AcDbEntity
  8
Layer 1
370
     0
100
AcDbVertex
100
AcDb2dVertex
 10
10.24807400173611
 20
14.61684841579861
 30
0.0
  0
VERTEX
  5
1C8
330
1C5
100
AcDbEntity
  8
Layer 1
370
     0
100
AcDbVertex
100
AcDb2dVertex
 10
9.8260498046875
 20
14.61684841579861
 30
0.0
  0
VERTEX
  5
1C9
330
1C5
100
AcDbEntity
  8
Layer 1
370
     0
100
AcDbVertex
100
AcDb2dVertex
 10
9.8260498046875
 20
13.24089219835069
 30
0.0
  0
VERTEX
  5
1CA
330
1C5
100
AcDbEntity
  8
Layer 1
370
     0
100
AcDbVertex
100
AcDb2dVertex
 10
10.24807400173611
 20
13.24089219835069
 30
0.0
  0
SEQEND
  5
1CB
330
1C5
100
AcDbEntity
  8
Layer 1
370
     0
  0
POLYLINE
  5
1CC
330
1B3
100
AcDbEntity
  8
Layer 1
370
     0
100
AcDb2dPolyline
 66
     1
 10
0.0
 20
0.0
 30
0.0
  0
VERTEX
  5
1CD
330
1CC
100
AcDbEntity
  8
Layer 1
370
     0
100
AcDbVertex
100
AcDb2dVertex
 10
9.58758544921875
 20
13.24089219835069
 30
0.0
  0
VERTEX
  5
1CE
330
1CC
100
AcDbEntity
  8
Layer 1
370
     0
100
AcDbVertex
100
AcDb2dVertex
 10
9.58758544921875
 20
14.61684841579861
 30
0.0
  0
VERTEX
  5
1CF
330
1CC
100
AcDbEntity
  8
Layer 1
370
     0
100
AcDbVertex
100
AcDb2dVertex
 10
9.16555447048611
 20
14.61684841579861
 30
0.0
  0
VERTEX
  5
1D0
330
1CC
100
AcDbEntity
  8
Layer 1
370
     0
100
AcDbVertex
100
AcDb2dVertex
 10
9.16555447048611
 20
13.24089219835069
 30
0.0
  0
VERTEX
  5
1D1
330
1CC
100
AcDbEntity
  8
Layer 1
370
     0
100
AcDbVertex
100
AcDb2dVertex
 10
9.58758544921875
 20
13.24089219835069
 30
0.0
  0
SEQEND
  5
1D2
330
1CC
100
AcDbEntity
  8
Layer 1
370
     0
  0
POLYLINE
  5
1D3
330
1B3
100
AcDbEntity
  8
Layer 1
370
     0
100
AcDb2dPolyline
 66
     1
 10
0.0
 20
0.0
 30
0.0
  0
VERTEX
  5
1D4
330
1D3
100
AcDbEntity
  8
Layer 1
370
     0
100
AcDbVertex
100
AcDb2dVertex
 10
8.92709011501736
 20
13.24089219835069
 30
0.0
  0
VERTEX
  5
1D5
330
1D3
100
AcDbEntity
  8
Layer 1
370
     0
100
AcDbVertex
100
AcDb2dVertex
 10
8.92709011501736
 20
14.61684841579861
 30
0.0
  0
VERTEX
  5
1D6
330
1D3
100
AcDbEntity
  8
Layer 1
370
     0
100
AcDbVertex
100
AcDb2dVertex
 10
8.505052354600695
 20
14.61684841579861
 30
0.0
  0
VERTEX
  5
1D7
330
1D3
100
AcDbEntity
  8
Layer 1
370
     0
100
AcDbVertex
100
AcDb2dVertex
 10
8.505052354600695
 20
13.24089219835069
 30
0.0
  0
VERTEX
  5
1D8
330
1D3
100
AcDbEntity
  8
Layer 1
370
     0
100
AcDbVertex
100
AcDb2dVertex
 10
8.92709011501736
 20
13.24089219835069
 30
0.0
  0
SEQEND
  5
1D9
330
1D3
100
AcDbEntity
  8
Layer 1
370
     0
  0
POLYLINE
  5
1DA
330
1B3
100
AcDbEntity
  8
Layer 1
370
     0
100
AcDb2dPolyline
 66
     1
 10
0.0
 20
0.0
 30
0.0
  0
VERTEX
  5
1DB
330
1DA
100
AcDbEntity
  8
Layer 1
370
     0
100
AcDbVertex
100
AcDb2dVertex
 10
12.89006890190972
 20
13.24089219835069
 30
0.0
  0
VERTEX
  5
1DC
330
1DA
100
AcDbEntity
  8
Layer 1
370
     0
100
AcDbVertex
100
AcDb2dVertex
 10
12.89006890190972
 20
14.61684841579861
 30
0.0
  0
VERTEX
  5
1DD
330
1DA
100
AcDbEntity
  8
Layer 1
370
     0
100
AcDbVertex
100
AcDb2dVertex
 10
12.46803114149306
 20
14.61684841579861
 30
0.0
  0
VERTEX
  5
1DE
330
1DA
100
AcDbEntity
  8
Layer 1
370
     0
100
AcDbVertex
100
AcDb2dVertex
 10
12.46803114149306
 20
13.24089219835069
 30
0.0
  0
VERTEX
  5
1DF
330
1DA
100
AcDbEntity
  8
Layer 1
370
     0
100
AcDbVertex
100
AcDb2dVertex
 10
12.89006890190972
 20
13.24089219835069
 30
0.0
  0
SEQEND
  5
1E0
330
1DA
100
AcDbEntity
  8
Layer 1
370
     0
  0
POLYLINE
  5
1E1
330
1B3
100
AcDbEntity
  8
Layer 1
370
     0
100
AcDb2dPolyline
 66
     1
 10
0.0
 20
0.0
 30
0.0
  0
VERTEX
  5
1E2
330
1E1
100
AcDbEntity
  8
Layer 1
370
     0
100
AcDbVertex
100
AcDb2dVertex
 10
10.90857611762153
 20
13.24089219835069
 30
0.0
  0
VERTEX
  5
1E3
330
1E1
100
AcDbEntity
  8
Layer 1
370
     0
100
AcDbVertex
100
AcDb2dVertex
 10
10.90857611762153
 20
14.61684841579861
 30
0.0
  0
VERTEX
  5
1E4
330
1E1
100
AcDbEntity
  8
Layer 1
370
     0
100
AcDbVertex
100
AcDb2dVertex
 10
10.48654513888889
 20
14.61684841579861
 30
0.0
  0
VERTEX
  5
1E5
330
1E1
100
AcDbEntity
  8
Layer 1
370
     0
100
AcDbVertex
100
AcDb2dVertex
 10
10.48654513888889
 20
13.24089219835069
 30
0.0
  0
VERTEX
  5
1E6
330
1E1
100
AcDbEntity
  8
Layer 1
370
     0
100
AcDbVertex
100
AcDb2dVertex
 10
10.90857611762153
 20
13.24089219835069
 30
0.0
  0
SEQEND
  5
1E7
330
1E1
100
AcDbEntity
  8
Layer 1
370
     0
  0
POLYLINE
  5
1E8
330
1B3
100
AcDbEntity
  8
Layer 1
370
     0
100
AcDb2dPolyline
 66
     1
 10
0.0
 20
0.0
 30
0.0
  0
VERTEX
  5
1E9
330
1E8
100
AcDbEntity
  8
Layer 1
370
     0
100
AcDbVertex
100
AcDb2dVertex
 10
12.22957356770833
 20
13.24089219835069
 30
0.0
  0
VERTEX
  5
1EA
330
1E8
100
AcDbEntity
  8
Layer 1
370
     0
100
AcDbVertex
100
AcDb2dVertex
 10
12.22957356770833
 20
14.61684841579861
 30
0.0
  0
VERTEX
  5
1EB
330
1E8
100
AcDbEntity
  8
Layer 1
370
     0
100
AcDbVertex
100
AcDb2dVertex
 10
11.80753580729167
 20
14.61684841579861
 30
0.0
  0
VERTEX
  5
1EC
330
1E8
100
AcDbEntity
  8
Layer 1
370
     0
100
AcDbVertex
100
AcDb2dVertex
 10
11.80753580729167
 20
13.24089219835069
 30
0.0
  0
VERTEX
  5
1ED
330
1E8
100
AcDbEntity
  8
Layer 1
370
     0
100
AcDbVertex
100
AcDb2dVertex
 10
12.22957356770833
 20
13.24089219835069
 30
0.0
  0
SEQEND
  5
1EE
330
1E8
100
AcDbEntity
  8
Layer 1
370
     0
  0
ENDBLK
  5
1B6
330
1B3
100
AcDbEntity
  8
0
100
AcDbBlockEnd
  0
BLOCK
  5
1FC
330
1FA
100
AcDbEntity
  8
0
100
AcDbBlockBegin
  2
block 8
 70
     0
 71
     0
 10
0.0
 20
0.0
 30
0.0
  3
block 8
  1

  0
POLYLINE
  5
1FE
330
1FA
100
AcDbEntity
  8
Layer 1
370
     0
100
AcDb2dPolyline
 66
     1
 10
0.0
 20
0.0
 30
0.0
  0
VERTEX
  5
1FF
330
1FE
100
AcDbEntity
  8
Layer 1
370
     0
100
AcDbVertex
100
AcDb2dVertex
 10
8.266594780815971
 20
11.671875
 30
0.0
  0
VERTEX
  5
200
330
1FE
100
AcDbEntity
  8
Layer 1
370
     0
100
AcDbVertex
100
AcDb2dVertex
 10
8.266594780815971
 20
13.04782443576389
 30
0.0
  0
VERTEX
  5
201
330
1FE
100
AcDbEntity
  8
Layer 1
370
     0
100
AcDbVertex
100
AcDb2dVertex
 10
7.844563802083333
 20
13.04782443576389
 30
0.0
  0
VERTEX
  5
202
330
1FE
100
AcDbEntity
  8
Layer 1
370
     0
100
AcDbVertex
100
AcDb2dVertex
 10
7.844563802083333
 20
11.671875
 30
0.0
  0
VERTEX
  5
203
330
1FE
100
AcDbEntity
  8
Layer 1
370
     0
100
AcDbVertex
100
AcDb2dVertex
 10
8.266594780815971
 20
11.671875
 30
0.0
  0
SEQEND
  5
204
330
1FE
100
AcDbEntity
  8
Layer 1
370
     0
  0
POLYLINE
  5
205
330
1FA
100
AcDbEntity
  8
Layer 1
370
     0
100
AcDb2dPolyline
 66
     1
 10
0.0
 20
0.0
 30
0.0
  0
VERTEX
  5
206
330
205
100
AcDbEntity
  8
Layer 1
370
     0
100
AcDbVertex
100
AcDb2dVertex
 10
11.56907145182292
 20
11.671875
 30
0.0
  0
VERTEX
  5
207
330
205
100
AcDbEntity
  8
Layer 1
370
     0
100
AcDbVertex
100
AcDb2dVertex
 10
11.56907145182292
 20
13.04782443576389
 30
0.0
  0
VERTEX
  5
208
330
205
100
AcDbEntity
  8
Layer 1
370
     0
100
AcDbVertex
100
AcDb2dVertex
 10
11.14703369140625
 20
13.04782443576389
 30
0.0
  0
VERTEX
  5
209
330
205
100
AcDbEntity
  8
Layer 1
370
     0
100
AcDbVertex
100
AcDb2dVertex
 10
11.14703369140625
 20
11.671875
 30
0.0
  0
VERTEX
  5
20A
330
205
100
AcDbEntity
  8
Layer 1
370
     0
100
AcDbVertex
100
AcDb2dVertex
 10
11.56907145182292
 20
11.671875
 30
0.0
  0
SEQEND
  5
20B
330
205
100
AcDbEntity
  8
Layer 1
370
     0
  0
POLYLINE
  5
20C
330
1FA
100
AcDbEntity
  8
Layer 1
370
     0
100
AcDb2dPolyline
 66
     1
 10
0.0
 20
0.0
 30
0.0
  0
VERTEX
  5
20D
330
20C
100
AcDbEntity
  8
Layer 1
370
     0
100
AcDbVertex
100
AcDb2dVertex
 10
10.24807400173611
 20
11.671875
 30
0.0
  0
VERTEX
  5
20E
330
20C
100
AcDbEntity
  8
Layer 1
370
     0
100
AcDbVertex
100
AcDb2dVertex
 10
10.24807400173611
 20
13.04782443576389
 30
0.0
  0
VERTEX
  5
20F
330
20C
100
AcDbEntity
  8
Layer 1
370
     0
100
AcDbVertex
100
AcDb2dVertex
 10
9.8260498046875
 20
13.04782443576389
 30
0.0
  0
VERTEX
  5
210
330
20C
100
AcDbEntity
  8
Layer 1
370
     0
100
AcDbVertex
100
AcDb2dVertex
 10
9.8260498046875
 20
11.671875
 30
0.0
  0
VERTEX
  5
211
330
20C
100
AcDbEntity
  8
Layer 1
370
     0
100
AcDbVertex
100
AcDb2dVertex
 10
10.24807400173611
 20
11.671875
 30
0.0
  0
SEQEND
  5
212
330
20C
100
AcDbEntity
  8
Layer 1
370
     0
  0
POLYLINE
  5
213
330
1FA
100
AcDbEntity
  8
Layer 1
370
     0
100
AcDb2dPolyline
 66
     1
 10
0.0
 20
0.0
 30
0.0
  0
VERTEX
  5
214
330
213
100
AcDbEntity
  8
Layer 1
370
     0
100
AcDbVertex
100
AcDb2dVertex
 10
9.58758544921875
 20
11.671875
 30
0.0
  0
VERTEX
  5
215
330
213
100
AcDbEntity
  8
Layer 1
370
     0
100
AcDbVertex
100
AcDb2dVertex
 10
9.58758544921875
 20
13.04782443576389
 30
0.0
  0
VERTEX
  5
216
330
213
100
AcDbEntity
  8
Layer 1
370
     0
100
AcDbVertex
100
AcDb2dVertex
 10
9.16555447048611
 20
13.04782443576389
 30
0.0
  0
VERTEX
  5
217
330
213
100
AcDbEntity
  8
Layer 1
370
     0
100
AcDbVertex
100
AcDb2dVertex
 10
9.16555447048611
 20
11.671875
 30
0.0
  0
VERTEX
  5
218
330
213
100
AcDbEntity
  8
Layer 1
370
     0
100
AcDbVertex
100
AcDb2dVertex
 10
9.58758544921875
 20
11.671875
 30
0.0
  0
SEQEND
  5
219
330
213
100
AcDbEntity
  8
Layer 1
370
     0
  0
POLYLINE
  5
21A
330
1FA
100
AcDbEntity
  8
Layer 1
370
     0
100
AcDb2dPolyline
 66
     1
 10
0.0
 20
0.0
 30
0.0
  0
VERTEX
  5
21B
330
21A
100
AcDbEntity
  8
Layer 1
370
     0
100
AcDbVertex
100
AcDb2dVertex
 10
8.92709011501736
 20
11.671875
 30
0.0
  0
VERTEX
  5
21C
330
21A
100
AcDbEntity
  8
Layer 1
370
     0
100
AcDbVertex
100
AcDb2dVertex
 10
8.92709011501736
 20
13.04782443576389
 30
0.0
  0
VERTEX
  5
21D
330
21A
100
AcDbEntity
  8
Layer 1
370
     0
100
AcDbVertex
100
AcDb2dVertex
 10
8.505052354600695
 20
13.04782443576389
 30
0.0
  0
VERTEX
  5
21E
330
21A
100
AcDbEntity
  8
Layer 1
370
     0
100
AcDbVertex
100
AcDb2dVertex
 10
8.505052354600695
 20
11.671875
 30
0.0
  0
VERTEX
  5
21F
330
21A
100
AcDbEntity
  8
Layer 1
370
     0
100
AcDbVertex
100
AcDb2dVertex
 10
8.92709011501736
 20
11.671875
 30
0.0
  0
SEQEND
  5
220
330
21A
100
AcDbEntity
  8
Layer 1
370
     0
  0
POLYLINE
  5
221
330
1FA
100
AcDbEntity
  8
Layer 1
370
     0
100
AcDb2dPolyline
 66
     1
 10
0.0
 20
0.0
 30
0.0
  0
VERTEX
  5
222
330
221
100
AcDbEntity
  8
Layer 1
370
     0
100
AcDbVertex
100
AcDb2dVertex
 10
12.89006890190972
 20
11.671875
 30
0.0
  0
VERTEX
  5
223
330
221
100
AcDbEntity
  8
Layer 1
370
     0
100
AcDbVertex
100
AcDb2dVertex
 10
12.89006890190972
 20
13.04782443576389
 30
0.0
  0
VERTEX
  5
224
330
221
100
AcDbEntity
  8
Layer 1
370
     0
100
AcDbVertex
100
AcDb2dVertex
 10
12.46803114149306
 20
13.04782443576389
 30
0.0
  0
VERTEX
  5
225
330
221
100
AcDbEntity
  8
Layer 1
370
     0
100
AcDbVertex
100
AcDb2dVertex
 10
12.46803114149306
 20
11.671875
 30
0.0
  0
VERTEX
  5
226
330
221
100
AcDbEntity
  8
Layer 1
370
     0
100
AcDbVertex
100
AcDb2dVertex
 10
12.89006890190972
 20
11.671875
 30
0.0
  0
SEQEND
  5
227
330
221
100
AcDbEntity
  8
Layer 1
370
     0
  0
POLYLINE
  5
228
330
1FA
100
AcDbEntity
  8
Layer 1
370
     0
100
AcDb2dPolyline
 66
     1
 10
0.0
 20
0.0
 30
0.0
  0
VERTEX
  5
229
330
228
100
AcDbEntity
  8
Layer 1
370
     0
100
AcDbVertex
100
AcDb2dVertex
 10
10.90857611762153
 20
11.671875
 30
0.0
  0
VERTEX
  5
22A
330
228
100
AcDbEntity
  8
Layer 1
370
     0
100
AcDbVertex
100
AcDb2dVertex
 10
10.90857611762153
 20
13.04782443576389
 30
0.0
  0
VERTEX
  5
22B
330
228
100
AcDbEntity
  8
Layer 1
370
     0
100
AcDbVertex
100
AcDb2dVertex
 10
10.48654513888889
 20
13.04782443576389
 30
0.0
  0
VERTEX
  5
22C
330
228
100
AcDbEntity
  8
Layer 1
370
     0
100
AcDbVertex
100
AcDb2dVertex
 10
10.48654513888889
 20
11.671875
 30
0.0
  0
VERTEX
  5
22D
330
228
100
AcDbEntity
  8
Layer 1
370
     0
100
AcDbVertex
100
AcDb2dVertex
 10
10.90857611762153
 20
11.671875
 30
0.0
  0
SEQEND
  5
22E
330
228
100
AcDbEntity
  8
Layer 1
370
     0
  0
POLYLINE
  5
22F
330
1FA
100
AcDbEntity
  8
Layer 1
370
     0
100
AcDb2dPolyline
 66
     1
 10
0.0
 20
0.0
 30
0.0
  0
VERTEX
  5
230
330
22F
100
AcDbEntity
  8
Layer 1
370
     0
100
AcDbVertex
100
AcDb2dVertex
 10
12.22957356770833
 20
11.671875
 30
0.0
  0
VERTEX
  5
231
330
22F
100
AcDbEntity
  8
Layer 1
370
     0
100
AcDbVertex
100
AcDb2dVertex
 10
12.22957356770833
 20
13.04782443576389
 30
0.0
  0
VERTEX
  5
232
330
22F
100
AcDbEntity
  8
Layer 1
370
     0
100
AcDbVertex
100
AcDb2dVertex
 10
11.80753580729167
 20
13.04782443576389
 30
0.0
  0
VERTEX
  5
233
330
22F
100
AcDbEntity
  8
Layer 1
370
     0
100
AcDbVertex
100
AcDb2dVertex
 10
11.80753580729167
 20
11.671875
 30
0.0
  0
VERTEX
  5
234
330
22F
100
AcDbEntity
  8
Layer 1
370
     0
100
AcDbVertex
100
AcDb2dVertex
 10
12.22957356770833
 20
11.671875
 30
0.0
  0
SEQEND
  5
235
330
22F
100
AcDbEntity
  8
Layer 1
370
     0
  0
ENDBLK
  5
1FD
330
1FA
100
AcDbEntity
  8
0
100
AcDbBlockEnd
  0
ENDSEC
  0
SECTION
  2
ENTITIES
  0
INSERT
  5
3D
330
1F
100
AcDbEntity
  8
Layer 1
100
AcDbBlockReference
  2
block 2
 10
0.0
 20
0.0
 30
0.0
  0
INSERT
  5
97
330
1F
100
AcDbEntity
  8
Layer 1
100
AcDbBlockReference
  2
block 3
 10
0.0
 20
0.0
 30
0.0
  0
INSERT
  5
F1
330
1F
100
AcDbEntity
  8
Layer 1
100
AcDbBlockReference
  2
block 4
 10
0.0
 20
0.0
 30
0.0
  0
INSERT
  5
14B
330
1F
100
AcDbEntity
  8
Layer 1
100
AcDbBlockReference
  2
block 5
 10
0.0
 20
0.0
 30
0.0
  0
INSERT
  5
1A5
330
1F
100
AcDbEntity
  8
Layer 1
100
AcDbBlockReference
  2
block 6
 10
0.0
 20
0.0
 30
0.0
  0
ENDSEC
  0
SECTION
  2
OBJECTS
  0
DICTIONARY
  5
C
330
0
100
AcDbDictionary
281
     1
  3
ACAD_GROUP
350
D
  3
ACAD_LAYOUT
350
1A
  3
ACAD_MLINESTYLE
350
17
  3
ACAD_PLOTSETTINGS
350
19
  3
ACAD_PLOTSTYLENAME
350
E
  3
ACAD_TABLESTYLE
350
23A
  3
ACAD_VISUALSTYLE
350
2A
  0
DICTIONARY
  5
D
102
{ACAD_REACTORS
330
C
102
}
330
C
100
AcDbDictionary
281
     1
  0
DICTIONARY
  5
1A
102
{ACAD_REACTORS
330
C
102
}
330
C
100
AcDbDictionary
281
     1
  3
Layout1
350
1E
  3
Layout2
350
26
  3
Model
350
22
  0
DICTIONARY
  5
17
102
{ACAD_REACTORS
330
C
102
}
330
C
100
AcDbDictionary
281
     1
  3
Standard
350
18
  0
DICTIONARY
  5
19
102
{ACAD_REACTORS
330
C
102
}
330
C
100
AcDbDictionary
281
     1
  0
ACDBDICTIONARYWDFLT
  5
E
102
{ACAD_REACTORS
330
C
102
}
330
C
100
AcDbDictionary
281
     1
  3
Normal
350
F
100
AcDbDictionaryWithDefault
340
F
  0
DICTIONARY
  5
23A
102
{ACAD_REACTORS
330
C
102
}
330
C
100
AcDbDictionary
281
     1
  0
DICTIONARY
  5
2A
102
{ACAD_REACTORS
330
C
102
}
330
C
100
AcDbDictionary
281
     1
  3
2dWireframe
350
2F
  3
3D Hidden
350
31
  3
3dWireframe
350
30
  3
Basic
350
32
  3
Brighten
350
36
  3
ColorChange
350
3A
  3
Conceptual
350
34
  3
Dim
350
35
  3
Facepattern
350
39
  3
Flat
350
2B
  3
FlatWithEdges
350
2C
  3
Gouraud
350
2D
  3
GouraudWithEdges
350
2E
  3
Linepattern
350
38
  3
Realistic
350
33
  3
Thicken
350
37
  0
LAYOUT
  5
1E
102
{ACAD_REACTORS
330
1A
102
}
330
1A
100
AcDbPlotSettings
  1

  2
none_device
  4

  6

 40
0.0
 41
0.0
 42
0.0
 43
0.0
 44
0.0
 45
0.0
 46
0.0
 47
0.0
 48
0.0
 49
0.0
140
0.0
141
0.0
142
1.0
143
1.0
 70
   688
 72
     0
 73
     0
 74
     5
  7

 75
    16
 76
     0
 77
     2
 78
   300
147
1.0
148
0.0
149
0.0
100
AcDbLayout
  1
Layout1
 70
     1
 71
     1
 10
0.0
 20
0.0
 11
12.0
 21
9.0
 12
0.0
 22
0.0
 32
0.0
 14
1.000000000000000E+20
 24
1.000000000000000E+20
 34
1.000000000000000E+20
 15
-1.000000000000000E+20
 25
-1.000000000000000E+20
 35
-1.000000000000000E+20
146
0.0
 13
0.0
 23
0.0
 33
0.0
 16
1.0
 26
0.0
 36
0.0
 17
0.0
 27
1.0
 37
0.0
 76
     0
330
1B
  0
LAYOUT
  5
26
102
{ACAD_REACTORS
330
1A
102
}
330
1A
100
AcDbPlotSettings
  1

  2
none_device
  4

  6

 40
0.0
 41
0.0
 42
0.0
 43
0.0
 44
0.0
 45
0.0
 46
0.0
 47
0.0
 48
0.0
 49
0.0
140
0.0
141
0.0
142
1.0
143
1.0
 70
   688
 72
     0
 73
     0
 74
     5
  7

 75
    16
 76
     0
 77
     2
 78
   300
147
1.0
148
0.0
149
0.0
100
AcDbLayout
  1
Layout2
 70
     1
 71
     2
 10
0.0
 20
0.0
 11
0.0
 21
0.0
 12
0.0
 22
0.0
 32
0.0
 14
0.0
 24
0.0
 34
0.0
 15
0.0
 25
0.0
 35
0.0
146
0.0
 13
0.0
 23
0.0
 33
0.0
 16
1.0
 26
0.0
 36
0.0
 17
0.0
 27
1.0
 37
0.0
 76
     0
330
23
  0
LAYOUT
  5
22
102
{ACAD_REACTORS
330
1A
102
}
330
1A
100
AcDbPlotSettings
  1

  2
none_device
  4

  6

 40
0.0
 41
0.0
 42
0.0
 43
0.0
 44
0.0
 45
0.0
 46
0.0
 47
0.0
 48
0.0
 49
0.0
140
0.0
141
0.0
142
1.0
143
1.0
 70
  1712
 72
     0
 73
     0
 74
     0
  7

 75
     0
 76
     0
 77
     2
 78
   300
147
1.0
148
0.0
149
0.0
100
AcDbLayout
  1
Model
 70
     1
 71
     0
 10
0.0
 20
0.0
 11
12.0
 21
9.0
 12
0.0
 22
0.0
 32
0.0
 14
1.000000000000000E+20
 24
1.000000000000000E+20
 34
1.000000000000000E+20
 15
-1.000000000000000E+20
 25
-1.000000000000000E+20
 35
-1.000000000000000E+20
146
0.0
 13
0.0
 23
0.0
 33
0.0
 16
1.0
 26
0.0
 36
0.0
 17
0.0
 27
1.0
 37
0.0
 76
     0
330
1F
331
29
  0
MLINESTYLE
  5
18
102
{ACAD_REACTORS
330
17
102
}
330
17
100
AcDbMlineStyle
  2
Standard
 70
     0
  3

 62
   256
 51
90.0
 52
90.0
 71
     2
 49
0.5
 62
   256
  6
BYLAYER
 49
-0.5
 62
   256
  6
BYLAYER
  0
ACDBPLACEHOLDER
  5
F
102
{ACAD_REACTORS
330
E
102
}
330
E
  0
VISUALSTYLE
  5
2F
102
{ACAD_REACTORS
330
2A
102
}
330
2A
100
AcDbVisualStyle
  2
2dWireframe
 70
     4
 71
     0
 72
     2
 73
     0
 90
        0
 40
-0.6
 41
-30.0
 62
     5
 63
     7
421
 16777215
 74
     1
 91
        4
 64
     7
 65
   257
 75
     1
175
     1
 42
1.0
 92
        0
 66
   257
 43
1.0
 76
     1
 77
     6
 78
     2
 67
     7
 79
     5
170
     0
171
     0
290
     0
174
     0
 93
        1
 44
0.0
173
     0
291
     0
 45
0.0
1001
ACAD
1000
AcDbSavedByObjectVersion
1070
     0
  0
VISUALSTYLE
  5
31
102
{ACAD_REACTORS
330
2A
102
}
330
2A
100
AcDbVisualStyle
  2
3D Hidden
 70
     6
 71
     1
 72
     2
 73
     2
 90
        0
 40
-0.6
 41
-30.0
 62
     5
 63
     7
421
 16777215
 74
     2
 91
        2
 64
     7
 65
   257
 75
     2
175
     1
 42
40.0
 92
        0
 66
   257
 43
1.0
 76
     1
 77
     6
 78
     2
 67
     7
 79
     3
170
     0
171
     0
290
     0
174
     0
 93
        1
 44
0.0
173
     0
291
     0
 45
0.0
1001
ACAD
1000
AcDbSavedByObjectVersion
1070
     0
  0
VISUALSTYLE
  5
30
102
{ACAD_REACTORS
330
2A
102
}
330
2A
100
AcDbVisualStyle
  2
3dWireframe
 70
     5
 71
     0
 72
     2
 73
     0
 90
        0
 40
-0.6
 41
-30.0
 62
     5
 63
     7
421
 16777215
 74
     1
 91
        4
 64
     7
 65
   257
 75
     1
175
     1
 42
1.0
 92
        0
 66
   257
 43
1.0
 76
     1
 77
     6
 78
     2
 67
     7
 79
     5
170
     0
171
     0
290
     0
174
     0
 93
        1
 44
0.0
173
     0
291
     0
 45
0.0
1001
ACAD
1000
AcDbSavedByObjectVersion
1070
     0
  0
VISUALSTYLE
  5
32
102
{ACAD_REACTORS
330
2A
102
}
330
2A
100
AcDbVisualStyle
  2
Basic
 70
     7
 71
     1
 72
     0
 73
     1
 90
        0
 40
-0.6
 41
-30.0
 62
     5
 63
     7
421
 16777215
 74
     0
 91
        4
 64
     7
 65
   257
 75
     1
175
     1
 42
1.0
 92
        8
 66
     7
 43
1.0
 76
     1
 77
     6
 78
     2
 67
     7
 79
     5
170
     0
171
     0
290
     0
174
     0
 93
        1
 44
0.0
173
     0
291
     1
 45
0.0
1001
ACAD
1000
AcDbSavedByObjectVersion
1070
     0
  0
VISUALSTYLE
  5
36
102
{ACAD_REACTORS
330
2A
102
}
330
2A
100
AcDbVisualStyle
  2
Brighten
 70
    12
 71
     2
 72
     2
 73
     0
 90
        0
 40
-0.6
 41
-30.0
 62
     5
 63
     7
421
 16777215
 74
     1
 91
        4
 64
     7
 65
   257
 75
     1
175
     1
 42
1.0
 92
        8
 66
     7
 43
1.0
 76
     1
 77
     6
 78
     2
 67
     7
 79
     5
170
     0
171
     0
290
     0
174
     0
 93
        1
 44
50.0
173
     0
291
     1
 45
0.0
1001
ACAD
1000
AcDbSavedByObjectVersion
1070
     0
  0
VISUALSTYLE
  5
3A
102
{ACAD_REACTORS
330
2A
102
}
330
2A
100
AcDbVisualStyle
  2
ColorChange
 70
    16
 71
     2
 72
     2
 73
     3
 90
        0
 40
-0.6
 41
-30.0
 62
     5
 63
     8
421
  8421504
 74
     1
 91
        4
 64
     7
 65
   257
 75
     1
175
     1
 42
1.0
 92
        8
 66
     8
424
  8421504
 43
1.0
 76
     1
 77
     6
 78
     2
 67
     7
 79
     5
170
     0
171
     0
290
     0
174
     0
 93
        1
 44
0.0
173
     0
291
     1
 45
0.0
1001
ACAD
1000
AcDbSavedByObjectVersion
1070
     0
  0
VISUALSTYLE
  5
34
102
{ACAD_REACTORS
330
2A
102
}
330
2A
100
AcDbVisualStyle
  2
Conceptual
 70
     9
 71
     3
 72
     2
 73
     0
 90
        0
 40
-0.6
 41
-30.0
 62
     5
 63
     7
421
 16777215
 74
     2
 91
        2
 64
     7
 65
   257
 75
     1
175
     1
 42
40.0
 92
        8
 66
     7
 43
1.0
 76
     1
 77
     6
 78
     2
 67
     7
 79
     3
170
     0
171
     0
290
     0
174
     0
 93
        1
 44
0.0
173
     0
291
     0
 45
0.0
1001
ACAD
1000
AcDbSavedByObjectVersion
1070
     0
  0
VISUALSTYLE
  5
35
102
{ACAD_REACTORS
330
2A
102
}
330
2A
100
AcDbVisualStyle
  2
Dim
 70
    11
 71
     2
 72
     2
 73
     0
 90
        0
 40
-0.6
 41
-30.0
 62
     5
 63
     7
421
 16777215
 74
     1
 91
        4
 64
     7
 65
   257
 75
     1
175
     1
 42
1.0
 92
        8
 66
     7
 43
1.0
 76
     1
 77
     6
 78
     2
 67
     7
 79
     5
170
     0
171
     0
290
     0
174
     0
 93
        1
 44
-50.0
173
     0
291
     1
 45
0.0
1001
ACAD
1000
AcDbSavedByObjectVersion
1070
     0
  0
VISUALSTYLE
  5
39
102
{ACAD_REACTORS
330
2A
102
}
330
2A
100
AcDbVisualStyle
  2
Facepattern
 70
    15
 71
     2
 72
     2
 73
     0
 90
        0
 40
-0.6
 41
-30.0
 62
     5
 63
     7
421
 16777215
 74
     1
 91
        4
 64
     7
 65
   257
 75
     1
175
     1
 42
1.0
 92
        8
 66
     7
 43
1.0
 76
     1
 77
     6
 78
     2
 67
     7
 79
     5
170
     0
171
     0
290
     0
174
     0
 93
        1
 44
0.0
173
     0
291
     1
 45
0.0
1001
ACAD
1000
AcDbSavedByObjectVersion
1070
     0
  0
VISUALSTYLE
  5
2B
102
{ACAD_REACTORS
330
2A
102
}
330
2A
100
AcDbVisualStyle
  2
Flat
 70
     0
 71
     2
 72
     1
 73
     1
 90
        2
 40
-0.6
 41
30.0
 62
     5
 63
     7
421
 16777215
 74
     0
 91
        4
 64
     7
 65
   257
 75
     1
175
     1
 42
1.0
 92
        8
 66
     7
 43
1.0
 76
     1
 77
     6
 78
     2
 67
     7
 79
     5
170
     0
171
     0
290
     0
174
     0
 93
       13
 44
0.0
173
     0
291
     1
 45
0.0
1001
ACAD
1000
AcDbSavedByObjectVersion
1070
     0
  0
VISUALSTYLE
  5
2C
102
{ACAD_REACTORS
330
2A
102
}
330
2A
100
AcDbVisualStyle
  2
FlatWithEdges
 70
     1
 71
     2
 72
     1
 73
     1
 90
        2
 40
-0.6
 41
30.0
 62
     5
 63
     7
421
 16777215
 74
     1
 91
        4
 64
     7
 65
   257
 75
     1
175
     1
 42
1.0
 92
        0
 66
   257
 43
1.0
 76
     1
 77
     6
 78
     2
 67
     7
 79
     5
170
     0
171
     0
290
     0
174
     0
 93
       13
 44
0.0
173
     0
291
     1
 45
0.0
1001
ACAD
1000
AcDbSavedByObjectVersion
1070
     0
  0
VISUALSTYLE
  5
2D
102
{ACAD_REACTORS
330
2A
102
}
330
2A
100
AcDbVisualStyle
  2
Gouraud
 70
     2
 71
     2
 72
     2
 73
     1
 90
        2
 40
-0.6
 41
30.0
 62
     5
 63
     7
421
 16777215
 74
     0
 91
        4
 64
     7
 65
   257
 75
     1
175
     1
 42
1.0
 92
        0
 66
     7
 43
1.0
 76
     1
 77
     6
 78
     2
 67
     7
 79
     5
170
     0
171
     0
290
     0
174
     0
 93
       13
 44
0.0
173
     0
291
     1
 45
0.0
1001
ACAD
1000
AcDbSavedByObjectVersion
1070
     0
  0
VISUALSTYLE
  5
2E
102
{ACAD_REACTORS
330
2A
102
}
330
2A
100
AcDbVisualStyle
  2
GouraudWithEdges
 70
     3
 71
     2
 72
     2
 73
     1
 90
        2
 40
-0.6
 41
30.0
 62
     5
 63
     7
421
 16777215
 74
     1
 91
        4
 64
     7
 65
   257
 75
     1
175
     1
 42
1.0
 92
        0
 66
   257
 43
1.0
 76
     1
 77
     6
 78
     2
 67
     7
 79
     5
170
     0
171
     0
290
     0
174
     0
 93
       13
 44
0.0
173
     0
291
     1
 45
0.0
1001
ACAD
1000
AcDbSavedByObjectVersion
1070
     0
  0
VISUALSTYLE
  5
38
102
{ACAD_REACTORS
330
2A
102
}
330
2A
100
AcDbVisualStyle
  2
Linepattern
 70
    14
 71
     2
 72
     2
 73
     0
 90
        0
 40
-0.6
 41
-30.0
 62
     5
 63
     7
421
 16777215
 74
     1
 91
        4
 64
     7
 65
   257
 75
     7
175
     7
 42
1.0
 92
        8
 66
     7
 43
1.0
 76
     1
 77
     6
 78
     2
 67
     7
 79
     5
170
     0
171
     0
290
     0
174
     0
 93
        1
 44
0.0
173
     0
291
     1
 45
0.0
1001
ACAD
1000
AcDbSavedByObjectVersion
1070
     0
  0
VISUALSTYLE
  5
33
102
{ACAD_REACTORS
330
2A
102
}
330
2A
100
AcDbVisualStyle
  2
Realistic
 70
     8
 71
     2
 72
     2
 73
     0
 90
        0
 40
-0.6
 41
-30.0
 62
     5
 63
     7
421
 16777215
 74
     1
 91
        0
 64
     7
 65
   257
 75
     1
175
     1
 42
1.0
 92
        8
 66
     8
424
  7895160
 43
1.0
 76
     1
 77
     6
 78
     2
 67
     7
 79
     5
170
     0
171
     0
290
     0
174
     0
 93
       13
 44
0.0
173
     0
291
     0
 45
0.0
1001
ACAD
1000
AcDbSavedByObjectVersion
1070
     0
  0
VISUALSTYLE
  5
37
102
{ACAD_REACTORS
330
2A
102
}
330
2A
100
AcDbVisualStyle
  2
Thicken
 70
    13
 71
     2
 72
     2
 73
     0
 90
        0
 40
-0.6
 41
-30.0
 62
     5
 63
     7
421
 16777215
 74
     1
 91
        4
 64
     7
 65
   257
 75
     1
175
     1
 42
1.0
 92
       12
 66
     7
 43
1.0
 76
     1
 77
     6
 78
     2
 67
     7
 79
     5
170
     0
171
     0
290
     0
174
     0
 93
        1
 44
0.0
173
     0
291
     1
 45
0.0
1001
ACAD
1000
AcDbSavedByObjectVersion
1070
     0
  0
ENDSEC
  0
EOF
